<?xml version="1.0" ?><!DOCTYPE svg  PUBLIC '-//W3C//DTD SVG 1.1//EN'  'http://www.w3.org/Graphics/SVG/1.1/DTD/svg11.dtd'><svg enable-background="new 0 0 64 64" height="64px" id="Tweet_Tweet" version="1.1" viewBox="0 0 64 64" width="64px" xml:space="preserve" xmlns="http://www.w3.org/2000/svg" xmlns:xlink="http://www.w3.org/1999/xlink"><linearGradient gradientTransform="matrix(1 0 0 1 -2192 -2908)" gradientUnits="userSpaceOnUse" id="Circle_Shadow_1_" x1="2256.0293" x2="2224.03" y1="2972" y2="2940.0007"><stop offset="0.3163" style="stop-color:#FFFFFF;stop-opacity:0"/><stop offset="0.3508" style="stop-color:#E9E9E9;stop-opacity:0.0504"/><stop offset="0.4543" style="stop-color:#ACACAC;stop-opacity:0.2018"/><stop offset="0.5572" style="stop-color:#787878;stop-opacity:0.3523"/><stop offset="0.6569" style="stop-color:#4D4D4D;stop-opacity:0.4981"/><stop offset="0.7528" style="stop-color:#2B2B2B;stop-opacity:0.6385"/><stop offset="0.8441" style="stop-color:#131313;stop-opacity:0.7719"/><stop offset="0.9286" style="stop-color:#050505;stop-opacity:0.8956"/><stop offset="1" style="stop-color:#000000"/></linearGradient><polygon enable-background="new    " fill="url(#Circle_Shadow_1_)" id="Circle_Shadow" opacity="0.2" points="64.029,64   64.029,30.059 49,15.029 15.059,48.971 30.088,64 "/><circle cx="32" cy="32" fill="#2CA7E0" id="Circle" r="24"/><g id="Bird_shadow"><g><defs><circle cx="32" cy="32" id="SVGID_1_" r="24"/></defs><clipPath id="SVGID_2_"><use overflow="visible" xlink:href="#SVGID_1_"/></clipPath><linearGradient gradientTransform="matrix(1 0 0 -1 -274 -299)" gradientUnits="userSpaceOnUse" id="SVGID_3_" x1="345.5957" x2="294.4228" y1="-370.2207" y2="-319.0478"><stop offset="0.4082" style="stop-color:#000000;stop-opacity:0"/><stop offset="0.6888" style="stop-color:#00005E"/></linearGradient><path clip-path="url(#SVGID_2_)" d="M78.971,55.209    c-0.078,0.035-0.177,0.074-0.262,0.109c0.052-0.072,0.105-0.144,0.154-0.217c-0.078,0.035-0.177,0.074-0.261,0.11    c0.052-0.073,0.104-0.144,0.154-0.217c-0.078,0.034-0.177,0.073-0.261,0.11c0.051-0.073,0.104-0.145,0.154-0.217    c-0.078,0.034-0.177,0.072-0.261,0.108c0.05-0.072,0.104-0.144,0.153-0.215c-0.078,0.034-0.178,0.073-0.26,0.11    c0.049-0.074,0.104-0.146,0.153-0.219c-0.077,0.035-0.177,0.074-0.26,0.11c0.05-0.072,0.104-0.144,0.153-0.216    c-0.08,0.035-0.178,0.074-0.262,0.109c0.051-0.072,0.105-0.144,0.154-0.217c-0.078,0.035-0.177,0.074-0.261,0.109    c0.05-0.072,0.104-0.144,0.153-0.217c-0.078,0.035-0.177,0.074-0.261,0.11c0.052-0.073,0.104-0.144,0.154-0.217    c-0.078,0.035-0.177,0.073-0.261,0.11c0.051-0.073,0.104-0.145,0.154-0.217c-0.078,0.034-0.177,0.072-0.261,0.109    c0.052-0.073,0.104-0.145,0.154-0.217c-0.079,0.035-0.177,0.074-0.261,0.109c0.049-0.072,0.104-0.143,0.152-0.216    c-0.078,0.035-0.176,0.073-0.26,0.109c0.051-0.072,0.105-0.144,0.154-0.216c-0.08,0.035-0.178,0.074-0.262,0.109    c0.051-0.072,0.105-0.144,0.154-0.217c-0.021,0.01-0.047,0.02-0.068,0.028c0.234-0.425,0.43-0.851,0.558-1.249    c-0.062,0.035-0.128,0.078-0.19,0.117c0.027-0.074,0.061-0.151,0.084-0.225c-0.062,0.036-0.128,0.079-0.189,0.117    c0.027-0.074,0.061-0.15,0.084-0.225c-0.063,0.037-0.129,0.08-0.19,0.117c0.027-0.074,0.062-0.149,0.084-0.223    c-0.062,0.036-0.127,0.078-0.188,0.116c0.027-0.074,0.061-0.149,0.084-0.224c-0.063,0.037-0.129,0.08-0.19,0.117    c0.026-0.074,0.062-0.15,0.084-0.224c-0.062,0.036-0.128,0.079-0.19,0.117c0.027-0.074,0.062-0.151,0.084-0.224    c-0.062,0.035-0.127,0.078-0.189,0.116c0.027-0.073,0.061-0.151,0.084-0.224c-0.063,0.036-0.128,0.079-0.189,0.117    c0.026-0.074,0.061-0.151,0.084-0.225c-0.063,0.036-0.129,0.079-0.19,0.117c0.026-0.074,0.062-0.15,0.084-0.224    c-0.062,0.036-0.128,0.079-0.19,0.116c0.027-0.073,0.062-0.15,0.084-0.224c-0.062,0.036-0.127,0.078-0.188,0.116    c0.026-0.074,0.062-0.15,0.084-0.223c-0.062,0.035-0.128,0.078-0.19,0.117c0.027-0.074,0.061-0.15,0.084-0.224    c-0.062,0.036-0.128,0.079-0.189,0.117c0.027-0.074,0.061-0.151,0.084-0.224c-0.063,0.035-0.129,0.078-0.19,0.117    c0.027-0.074,0.062-0.152,0.084-0.225c-0.062,0.036-0.128,0.079-0.19,0.117c0.027-0.074,0.062-0.151,0.084-0.225    c-0.062,0.036-0.127,0.08-0.189,0.117c0.027-0.074,0.061-0.15,0.084-0.224c-0.063,0.036-0.128,0.079-0.189,0.116    c0.026-0.073,0.061-0.149,0.084-0.223c-0.063,0.036-0.129,0.078-0.189,0.116c0.027-0.073,0.061-0.149,0.084-0.224    c-0.063,0.037-0.129,0.08-0.191,0.117c0.027-0.074,0.063-0.15,0.086-0.225c-0.063,0.036-0.129,0.079-0.19,0.117    c0.026-0.074,0.062-0.15,0.084-0.225c-0.062,0.037-0.128,0.08-0.19,0.117c0.027-0.074,0.062-0.149,0.084-0.223    c-0.062,0.036-0.127,0.079-0.189,0.117c0.027-0.074,0.061-0.151,0.084-0.225c-0.063,0.037-0.128,0.08-0.189,0.117    c0.026-0.074,0.061-0.15,0.084-0.224c-0.063,0.036-0.129,0.079-0.191,0.116c0.027-0.073,0.062-0.15,0.085-0.223    c-0.063,0.035-0.128,0.077-0.189,0.115c0.027-0.074,0.062-0.15,0.084-0.223c-0.062,0.035-0.128,0.078-0.19,0.117    c0.027-0.074,0.062-0.15,0.084-0.224c-0.062,0.037-0.129,0.079-0.19,0.117c0.026-0.074,0.062-0.149,0.084-0.224    c-0.062,0.035-0.127,0.078-0.188,0.115c0.026-0.074,0.061-0.149,0.084-0.223c-0.063,0.036-0.129,0.079-0.19,0.117    c0.026-0.074,0.062-0.151,0.084-0.225c-0.062,0.037-0.128,0.08-0.19,0.117c0.027-0.074,0.062-0.15,0.084-0.224    c-0.062,0.036-0.127,0.079-0.189,0.117c0.027-0.074,0.061-0.151,0.084-0.224c-0.063,0.035-0.128,0.078-0.189,0.116    c0.026-0.073,0.061-0.151,0.084-0.224c-0.063,0.035-0.127,0.078-0.189,0.115c0.027-0.073,0.061-0.149,0.084-0.223    c-0.063,0.037-0.129,0.079-0.191,0.118c0.026-0.075,0.062-0.151,0.084-0.226c-0.061,0.037-0.127,0.078-0.188,0.117    c0.026-0.074,0.061-0.149,0.084-0.223c-0.062,0.036-0.128,0.079-0.19,0.117c0.027-0.074,0.061-0.15,0.084-0.225    c-0.062,0.037-0.128,0.08-0.189,0.117c0.027-0.074,0.061-0.15,0.084-0.224c-0.063,0.036-0.129,0.079-0.19,0.117    c0.027-0.074,0.062-0.151,0.084-0.224c-0.062,0.035-0.128,0.078-0.19,0.116c0.027-0.073,0.062-0.151,0.084-0.224    c-0.061,0.035-0.127,0.078-0.188,0.115c0.026-0.072,0.062-0.148,0.084-0.221c-0.062,0.036-0.129,0.078-0.19,0.116    c0.025-0.073,0.061-0.149,0.084-0.224c-0.062,0.035-0.127,0.078-0.189,0.115c0.027-0.073,0.061-0.149,0.084-0.223    c-0.063,0.036-0.128,0.079-0.189,0.117c0.026-0.074,0.061-0.15,0.084-0.225c-0.063,0.037-0.129,0.08-0.19,0.117    c0.026-0.074,0.062-0.15,0.084-0.224c-0.062,0.036-0.128,0.079-0.19,0.117c0.027-0.074,0.062-0.151,0.084-0.224    c-0.062,0.035-0.128,0.078-0.189,0.117c0.027-0.074,0.061-0.152,0.084-0.225c-0.061,0.036-0.127,0.078-0.189,0.115    c0.027-0.073,0.061-0.149,0.084-0.223c-0.062,0.037-0.129,0.079-0.191,0.118c0.027-0.075,0.062-0.151,0.084-0.225    c-0.061,0.036-0.127,0.077-0.188,0.116c0.027-0.073,0.062-0.149,0.084-0.223c-0.062,0.036-0.128,0.079-0.19,0.117    c0.027-0.074,0.062-0.15,0.084-0.225c-0.062,0.037-0.127,0.08-0.189,0.117c0.027-0.074,0.061-0.15,0.084-0.224    c-0.063,0.036-0.128,0.079-0.189,0.117c0.026-0.074,0.061-0.151,0.084-0.224c-0.063,0.035-0.129,0.078-0.19,0.117    c0.026-0.074,0.062-0.152,0.084-0.225c-0.062,0.036-0.127,0.078-0.188,0.116c0.026-0.074,0.061-0.149,0.084-0.222    c-0.063,0.037-0.129,0.078-0.191,0.116c0.027-0.073,0.061-0.151,0.084-0.224c-0.061,0.035-0.127,0.078-0.189,0.115    c0.027-0.073,0.062-0.149,0.084-0.223c-0.062,0.037-0.129,0.079-0.19,0.117c0.026-0.074,0.062-0.15,0.085-0.225    c-0.063,0.035-0.128,0.078-0.19,0.117c0.027-0.074,0.062-0.15,0.085-0.224c-0.063,0.036-0.129,0.079-0.191,0.117    c0.027-0.074,0.062-0.151,0.084-0.224c-0.062,0.035-0.127,0.078-0.189,0.117c0.027-0.074,0.061-0.151,0.084-0.225    c-0.061,0.036-0.127,0.078-0.189,0.116c0.027-0.074,0.062-0.15,0.084-0.224c-0.062,0.037-0.129,0.08-0.191,0.119    c0.027-0.076,0.063-0.152,0.085-0.226c-0.062,0.036-0.128,0.079-0.19,0.116c0.027-0.073,0.062-0.149,0.084-0.223    c-0.062,0.036-0.127,0.078-0.188,0.116c0.026-0.073,0.062-0.149,0.084-0.223c-0.062,0.036-0.128,0.079-0.19,0.116    c0.027-0.073,0.062-0.15,0.084-0.224c-0.062,0.036-0.127,0.079-0.189,0.117c0.027-0.074,0.061-0.151,0.084-0.224    c-0.063,0.035-0.128,0.078-0.189,0.117c0.026-0.074,0.061-0.151,0.084-0.225c-0.062,0.036-0.127,0.078-0.189,0.116    c0.027-0.074,0.061-0.149,0.084-0.222c-0.063,0.037-0.129,0.078-0.192,0.117c0.027-0.074,0.062-0.15,0.085-0.225    c-0.062,0.036-0.128,0.079-0.191,0.117c0.027-0.074,0.063-0.151,0.086-0.225c-0.063,0.035-0.129,0.078-0.189,0.115    c0.027-0.074,0.061-0.15,0.084-0.223c-0.063,0.035-0.128,0.078-0.189,0.117c0.027-0.074,0.061-0.15,0.084-0.223    c-0.063,0.035-0.129,0.078-0.19,0.116c0.027-0.073,0.062-0.151,0.084-0.224c-0.062,0.035-0.128,0.078-0.19,0.117    c0.027-0.074,0.062-0.151,0.084-0.225c-0.061,0.036-0.127,0.078-0.188,0.116c0.026-0.074,0.062-0.149,0.084-0.224    c-0.062,0.037-0.129,0.08-0.192,0.117c0.027-0.074,0.063-0.15,0.086-0.224c-0.063,0.036-0.129,0.079-0.19,0.116    c0.026-0.073,0.062-0.149,0.084-0.223c-0.062,0.037-0.128,0.078-0.188,0.116c0.026-0.073,0.061-0.149,0.084-0.223    c-0.063,0.036-0.129,0.079-0.19,0.116c0.026-0.073,0.062-0.15,0.084-0.223c-0.062,0.035-0.128,0.078-0.19,0.116    c0.027-0.073,0.062-0.151,0.084-0.224c-0.062,0.035-0.128,0.078-0.189,0.117c0.027-0.074,0.061-0.151,0.084-0.225    c-0.063,0.036-0.129,0.079-0.19,0.116c0.027-0.073,0.062-0.149,0.084-0.222c-0.062,0.035-0.128,0.078-0.19,0.117    c0.027-0.076,0.062-0.151,0.084-0.226c-0.062,0.036-0.127,0.079-0.189,0.117c0.027-0.074,0.061-0.151,0.084-0.224    c-0.063,0.035-0.128,0.078-0.189,0.115c0.027-0.074,0.062-0.15,0.084-0.223c-0.062,0.036-0.127,0.079-0.189,0.115    c0.027-0.072,0.061-0.148,0.084-0.221c-0.063,0.035-0.128,0.078-0.189,0.116c0.026-0.073,0.061-0.151,0.084-0.224    c-0.063,0.035-0.129,0.078-0.19,0.117c0.026-0.074,0.062-0.151,0.084-0.225c-0.062,0.036-0.128,0.079-0.19,0.117    c0.027-0.074,0.062-0.15,0.084-0.225c-0.062,0.037-0.127,0.08-0.189,0.117c0.027-0.074,0.061-0.15,0.084-0.224    c-0.063,0.036-0.128,0.079-0.189,0.116c0.026-0.073,0.061-0.148,0.084-0.223c-0.063,0.037-0.127,0.078-0.189,0.117    c0.027-0.074,0.061-0.15,0.084-0.224c-0.063,0.036-0.129,0.079-0.19,0.116c0.027-0.073,0.062-0.15,0.084-0.223    c-0.062,0.037-0.129,0.078-0.19,0.116c0.027-0.073,0.061-0.149,0.084-0.224c-0.062,0.036-0.127,0.078-0.189,0.115    c0.027-0.073,0.061-0.149,0.084-0.223c-0.063,0.036-0.128,0.079-0.189,0.117c0.026-0.074,0.061-0.15,0.084-0.224    c-0.063,0.036-0.129,0.079-0.19,0.116c0.026-0.073,0.062-0.15,0.084-0.224c-0.062,0.036-0.128,0.079-0.19,0.117    c0.027-0.074,0.062-0.151,0.084-0.224c-0.062,0.035-0.127,0.078-0.188,0.115c0.026-0.074,0.062-0.149,0.084-0.223    c-0.062,0.036-0.128,0.079-0.19,0.116c0.027-0.073,0.062-0.149,0.084-0.222c-0.062,0.037-0.129,0.078-0.19,0.117    c0.026-0.074,0.062-0.15,0.084-0.225c-0.062,0.036-0.127,0.078-0.188,0.116c0.026-0.074,0.061-0.15,0.084-0.224    c-0.063,0.036-0.129,0.08-0.19,0.117c0.026-0.074,0.061-0.15,0.084-0.224c-0.062,0.036-0.128,0.079-0.19,0.116    c0.027-0.073,0.061-0.15,0.084-0.224c-0.062,0.036-0.128,0.079-0.189,0.116c0.027-0.072,0.061-0.148,0.084-0.223    c-0.063,0.037-0.129,0.078-0.189,0.117c0.027-0.074,0.061-0.15,0.084-0.224c-0.063,0.036-0.128,0.079-0.189,0.116    c0.027-0.073,0.061-0.15,0.084-0.223c-0.063,0.037-0.129,0.078-0.192,0.117c0.026-0.074,0.062-0.151,0.085-0.226    c-0.061,0.036-0.127,0.078-0.189,0.116c0.027-0.073,0.062-0.149,0.084-0.223c-0.062,0.037-0.127,0.08-0.189,0.117    c0.027-0.074,0.061-0.15,0.084-0.224c-0.063,0.036-0.128,0.079-0.189,0.116c0.026-0.073,0.061-0.15,0.084-0.223    c-0.063,0.035-0.129,0.078-0.19,0.116c0.026-0.073,0.062-0.151,0.084-0.224c-0.062,0.035-0.128,0.078-0.19,0.117    c0.027-0.074,0.062-0.151,0.084-0.225c-0.061,0.036-0.127,0.078-0.188,0.116c0.026-0.074,0.062-0.149,0.084-0.222    c-0.062,0.037-0.13,0.078-0.191,0.117c0.027-0.074,0.062-0.15,0.084-0.225c-0.061,0.036-0.127,0.078-0.188,0.116    c0.027-0.074,0.061-0.15,0.084-0.224c-0.063,0.037-0.129,0.08-0.19,0.117c0.027-0.074,0.062-0.15,0.084-0.224    c-0.062,0.036-0.128,0.079-0.19,0.117c0.027-0.074,0.062-0.151,0.084-0.224c-0.062,0.035-0.127,0.078-0.189,0.115    c0.027-0.072,0.061-0.148,0.084-0.222c-0.063,0.036-0.128,0.079-0.189,0.116c0.026-0.073,0.061-0.15,0.084-0.224    c-0.063,0.036-0.129,0.078-0.189,0.116c0.027-0.074,0.061-0.15,0.084-0.225c-0.063,0.037-0.129,0.08-0.191,0.117    c0.027-0.074,0.062-0.15,0.084-0.224c-0.061,0.036-0.127,0.078-0.188,0.116c0.026-0.073,0.062-0.148,0.084-0.223    c-0.062,0.037-0.128,0.08-0.19,0.117c0.027-0.074,0.062-0.15,0.084-0.224c-0.062,0.036-0.127,0.079-0.189,0.117    c0.027-0.074,0.061-0.151,0.084-0.224c-0.063,0.035-0.128,0.078-0.189,0.116c0.026-0.073,0.061-0.151,0.084-0.224    c-0.063,0.035-0.129,0.079-0.191,0.117c0.027-0.074,0.062-0.151,0.085-0.225c-0.062,0.036-0.128,0.078-0.189,0.116    c0.027-0.073,0.062-0.149,0.084-0.222c-0.062,0.037-0.129,0.078-0.19,0.117c0.027-0.074,0.061-0.151,0.084-0.225    c-0.062,0.036-0.127,0.078-0.189,0.116c0.027-0.074,0.061-0.149,0.084-0.224c-0.063,0.037-0.128,0.08-0.189,0.117    c0.026-0.074,0.061-0.15,0.084-0.224c-0.063,0.036-0.129,0.079-0.19,0.117c0.026-0.074,0.062-0.151,0.084-0.224    c-0.062,0.035-0.128,0.078-0.19,0.117c0.027-0.074,0.062-0.152,0.084-0.225c-0.062,0.036-0.127,0.079-0.189,0.117    c0.027-0.074,0.061-0.151,0.084-0.225c-0.061,0.036-0.127,0.078-0.189,0.116c0.027-0.073,0.062-0.149,0.084-0.223    c-0.062,0.036-0.129,0.079-0.19,0.116c0.026-0.073,0.062-0.15,0.084-0.224c-0.062,0.036-0.127,0.078-0.188,0.116    c0.026-0.074,0.061-0.148,0.084-0.223c-0.063,0.037-0.129,0.08-0.19,0.117c0.026-0.074,0.061-0.15,0.084-0.224    c-0.062,0.036-0.128,0.079-0.19,0.117c0.027-0.074,0.061-0.151,0.084-0.224c-0.062,0.035-0.128,0.078-0.189,0.117    c0.027-0.074,0.061-0.152,0.084-0.225c-0.063,0.036-0.129,0.079-0.19,0.117c0.027-0.074,0.062-0.151,0.084-0.225    c-0.062,0.037-0.127,0.078-0.188,0.116c0.027-0.073,0.061-0.149,0.084-0.222c-0.063,0.037-0.129,0.079-0.191,0.117    c0.027-0.074,0.061-0.151,0.084-0.225c-0.061,0.036-0.127,0.078-0.189,0.116c0.027-0.073,0.062-0.149,0.084-0.223    c-0.062,0.036-0.127,0.079-0.189,0.116c0.027-0.073,0.061-0.15,0.084-0.224c-0.063,0.036-0.128,0.079-0.189,0.117    c0.026-0.074,0.061-0.151,0.084-0.224c-0.063,0.035-0.129,0.078-0.19,0.117c0.026-0.074,0.062-0.151,0.084-0.225    c-0.062,0.036-0.128,0.079-0.19,0.117c0.027-0.074,0.062-0.151,0.084-0.225c-0.061,0.037-0.127,0.078-0.188,0.116    c0.026-0.073,0.062-0.149,0.084-0.223c-0.062,0.037-0.129,0.079-0.192,0.118c0.027-0.075,0.063-0.151,0.086-0.225    c-0.063,0.035-0.129,0.078-0.189,0.115c0.027-0.074,0.061-0.15,0.084-0.223c-0.063,0.035-0.129,0.078-0.19,0.115    c0.027-0.072,0.062-0.148,0.084-0.222c-0.062,0.036-0.128,0.079-0.19,0.117c0.027-0.074,0.062-0.151,0.084-0.224    c-0.062,0.035-0.127,0.078-0.189,0.117c0.027-0.074,0.061-0.151,0.084-0.225c-0.063,0.036-0.128,0.079-0.189,0.117    c0.026-0.074,0.061-0.15,0.084-0.225c-0.063,0.037-0.129,0.08-0.19,0.117c0.026-0.074,0.062-0.15,0.084-0.224    c-0.062,0.036-0.127,0.078-0.188,0.116c0.026-0.074,0.061-0.15,0.084-0.223c-0.063,0.035-0.129,0.078-0.19,0.116    c0.026-0.073,0.062-0.149,0.084-0.223c-0.062,0.036-0.129,0.079-0.19,0.116c0.026-0.073,0.062-0.15,0.084-0.225    c-0.062,0.036-0.127,0.079-0.189,0.116c0.027-0.073,0.061-0.149,0.084-0.222c-0.063,0.035-0.128,0.078-0.189,0.115    c0.026-0.072,0.061-0.148,0.084-0.222c-0.063,0.036-0.129,0.079-0.191,0.117c0.027-0.074,0.063-0.151,0.085-0.226    c-0.062,0.037-0.128,0.08-0.19,0.117c0.027-0.074,0.061-0.15,0.084-0.224c-0.062,0.036-0.128,0.079-0.189,0.117    c0.027-0.074,0.061-0.151,0.084-0.224c-0.061,0.035-0.127,0.078-0.189,0.115c0.027-0.074,0.061-0.148,0.084-0.222    c-0.063,0.036-0.128,0.079-0.189,0.116c0.025-0.073,0.061-0.15,0.084-0.223c-0.063,0.035-0.129,0.078-0.19,0.116    c0.027-0.073,0.062-0.151,0.084-0.224c-0.062,0.035-0.128,0.078-0.19,0.117c0.027-0.074,0.062-0.151,0.084-0.225    c-0.062,0.036-0.127,0.079-0.189,0.117c0.027-0.074,0.061-0.15,0.084-0.225c-0.063,0.037-0.128,0.08-0.189,0.117    c0.026-0.074,0.061-0.15,0.084-0.224c-0.063,0.036-0.129,0.079-0.19,0.117c0.026-0.074,0.062-0.151,0.084-0.224    c-0.062,0.035-0.127,0.078-0.188,0.115c0.026-0.074,0.061-0.148,0.084-0.222c-0.063,0.036-0.129,0.079-0.19,0.117    c0.026-0.074,0.062-0.151,0.084-0.224c-0.062,0.035-0.128,0.078-0.19,0.116c0.027-0.073,0.062-0.151,0.084-0.224    c-0.062,0.037-0.129,0.078-0.19,0.117c0.026-0.074,0.061-0.15,0.084-0.225c-0.062,0.036-0.128,0.078-0.189,0.116    c0.027-0.073,0.062-0.149,0.085-0.224c-0.062,0.037-0.128,0.078-0.189,0.117c0.027-0.074,0.061-0.15,0.084-0.224    c-0.063,0.037-0.129,0.079-0.192,0.118c0.027-0.075,0.062-0.15,0.085-0.225c-0.063,0.037-0.128,0.078-0.189,0.117    c0.027-0.074,0.061-0.151,0.084-0.225c-0.063,0.036-0.129,0.078-0.189,0.116c0.027-0.074,0.061-0.15,0.084-0.224    c-0.063,0.037-0.128,0.08-0.189,0.117c0.026-0.074,0.061-0.15,0.084-0.223c-0.063,0.036-0.129,0.079-0.19,0.117    c0.026-0.074,0.062-0.151,0.084-0.225c-0.062,0.036-0.128,0.079-0.19,0.117c0.027-0.074,0.062-0.15,0.084-0.224    c-0.062,0.036-0.127,0.079-0.189,0.116c0.027-0.073,0.061-0.15,0.084-0.224c-0.063,0.036-0.128,0.079-0.189,0.117    c0.026-0.074,0.061-0.151,0.084-0.224c-0.062,0.035-0.127,0.078-0.189,0.115c0.027-0.072,0.061-0.148,0.084-0.222    c-0.063,0.037-0.129,0.079-0.191,0.118c0.026-0.075,0.062-0.152,0.084-0.227c-0.061,0.037-0.127,0.078-0.188,0.117    c0.026-0.074,0.061-0.15,0.084-0.223c-0.062,0.036-0.128,0.079-0.19,0.117c0.027-0.074,0.061-0.151,0.084-0.224    c-0.062,0.037-0.128,0.079-0.189,0.117c0.027-0.075,0.061-0.151,0.084-0.224c-0.063,0.037-0.129,0.079-0.19,0.117    c0.027-0.074,0.062-0.15,0.084-0.223c-0.062,0.037-0.128,0.079-0.19,0.117c0.027-0.074,0.062-0.15,0.084-0.223    c-0.062,0.037-0.127,0.079-0.188,0.116c0.026-0.074,0.062-0.15,0.084-0.223c-0.062,0.037-0.129,0.079-0.19,0.117    c0.026-0.075,0.062-0.151,0.084-0.224c-0.062,0.037-0.129,0.079-0.19,0.117c0.026-0.074,0.062-0.15,0.084-0.223    c-0.062,0.037-0.128,0.079-0.19,0.117c0.027-0.074,0.062-0.15,0.084-0.223c-0.061,0.036-0.127,0.079-0.188,0.116    c0.026-0.074,0.062-0.15,0.084-0.223c-0.062,0.037-0.128,0.079-0.19,0.117c0.027-0.074,0.062-0.15,0.084-0.223    c-0.062,0.037-0.127,0.079-0.189,0.117c0.027-0.074,0.061-0.15,0.084-0.223c-0.063,0.036-0.127,0.079-0.189,0.116    c0.027-0.074,0.062-0.15,0.084-0.223c-0.062,0.037-0.128,0.079-0.189,0.117c0.027-0.074,0.061-0.15,0.084-0.222    c-0.063,0.037-0.129,0.08-0.192,0.118c0.027-0.075,0.062-0.152,0.085-0.225c-0.063,0.037-0.128,0.079-0.189,0.117    c0.027-0.074,0.061-0.15,0.084-0.223c-0.062,0.036-0.127,0.079-0.189,0.116c0.027-0.074,0.061-0.15,0.084-0.223    c-0.063,0.037-0.128,0.079-0.189,0.117c0.026-0.074,0.061-0.15,0.084-0.223c-0.063,0.037-0.129,0.079-0.19,0.117    c0.026-0.074,0.062-0.15,0.084-0.223c-0.062,0.037-0.128,0.079-0.19,0.117c0.027-0.074,0.062-0.15,0.084-0.223    c-0.062,0.037-0.127,0.079-0.189,0.117c0.027-0.074,0.061-0.15,0.084-0.223c-0.061,0.036-0.127,0.078-0.189,0.116    c0.027-0.073,0.062-0.149,0.084-0.221c-0.062,0.037-0.129,0.079-0.19,0.118c0.026-0.075,0.062-0.151,0.084-0.224    c-0.062,0.037-0.128,0.079-0.19,0.117c0.027-0.075,0.063-0.151,0.086-0.224c-0.063,0.037-0.129,0.079-0.19,0.117    c0.026-0.074,0.062-0.15,0.084-0.222c-0.062,0.037-0.128,0.079-0.19,0.117c0.027-0.074,0.061-0.15,0.084-0.223    c-0.062,0.037-0.128,0.079-0.189,0.117c0.027-0.074,0.061-0.151,0.084-0.223c-0.063,0.037-0.129,0.079-0.19,0.117    c0.027-0.074,0.062-0.15,0.084-0.223c-0.062,0.037-0.128,0.079-0.19,0.117c0.027-0.074,0.062-0.15,0.084-0.223    c-0.061,0.036-0.127,0.078-0.188,0.116c0.027-0.073,0.062-0.149,0.084-0.222c-0.062,0.037-0.128,0.079-0.19,0.117    c0.027-0.074,0.062-0.15,0.084-0.223c-0.062,0.037-0.129,0.079-0.19,0.117c0.026-0.075,0.062-0.151,0.085-0.224    c-0.063,0.037-0.128,0.079-0.189,0.117c0.026-0.074,0.061-0.15,0.084-0.223c-0.062,0.036-0.127,0.078-0.189,0.116    c0.027-0.074,0.061-0.15,0.084-0.222c-0.063,0.037-0.129,0.08-0.191,0.118c0.026-0.075,0.062-0.151,0.084-0.225    c-0.062,0.037-0.127,0.079-0.189,0.117c0.027-0.074,0.061-0.15,0.084-0.223c-0.063,0.037-0.128,0.079-0.189,0.117    c0.026-0.074,0.061-0.15,0.084-0.223c-0.062,0.036-0.127,0.079-0.189,0.116c0.027-0.074,0.061-0.15,0.084-0.222    c-0.063,0.037-0.129,0.079-0.19,0.117c0.027-0.074,0.062-0.15,0.084-0.223c-0.062,0.037-0.128,0.079-0.19,0.117    c0.027-0.074,0.062-0.15,0.084-0.223c-0.062,0.037-0.127,0.079-0.189,0.117c0.027-0.074,0.061-0.15,0.084-0.223    c-0.063,0.037-0.128,0.079-0.189,0.117c0.026-0.074,0.061-0.15,0.084-0.223c-0.063,0.037-0.129,0.079-0.19,0.117    c0.026-0.074,0.062-0.15,0.084-0.223c-0.062,0.037-0.128,0.079-0.19,0.117c0.027-0.074,0.062-0.15,0.084-0.223    c-0.061,0.036-0.127,0.079-0.188,0.116c0.026-0.074,0.062-0.15,0.084-0.223c-0.062,0.037-0.128,0.079-0.19,0.117    c0.027-0.074,0.062-0.15,0.084-0.223c-0.062,0.037-0.127,0.079-0.189,0.117c0.027-0.074,0.061-0.15,0.084-0.223    c-0.063,0.037-0.128,0.079-0.189,0.117c0.026-0.074,0.061-0.15,0.084-0.223c-0.063,0.037-0.129,0.079-0.19,0.117    c0.026-0.074,0.062-0.15,0.084-0.223c-0.062,0.037-0.128,0.079-0.19,0.117c0.027-0.074,0.062-0.15,0.084-0.223    c-0.062,0.037-0.128,0.079-0.189,0.117c0.027-0.074,0.061-0.15,0.084-0.223c-0.063,0.036-0.127,0.079-0.189,0.116    c0.027-0.074,0.061-0.15,0.084-0.223c-0.062,0.037-0.128,0.079-0.189,0.117c0.027-0.074,0.061-0.15,0.084-0.223    c-0.063,0.037-0.129,0.079-0.19,0.117c0.027-0.074,0.062-0.151,0.084-0.223c-0.062,0.037-0.128,0.079-0.19,0.117    c0.027-0.074,0.062-0.15,0.084-0.223c-0.062,0.037-0.127,0.079-0.189,0.117c0.027-0.074,0.061-0.15,0.084-0.223    c-0.063,0.037-0.128,0.079-0.191,0.117c0.027-0.074,0.063-0.151,0.086-0.224c-0.063,0.037-0.129,0.079-0.19,0.117    c0.026-0.074,0.062-0.15,0.084-0.223c-0.062,0.036-0.127,0.078-0.188,0.116c0.026-0.073,0.061-0.149,0.084-0.221    c-0.063,0.037-0.129,0.079-0.191,0.117c0.027-0.075,0.063-0.151,0.085-0.224c-0.062,0.037-0.128,0.079-0.19,0.117    c0.027-0.074,0.062-0.151,0.084-0.224c-0.062,0.037-0.127,0.079-0.189,0.117c0.027-0.074,0.061-0.15,0.084-0.222    c-0.063,0.037-0.128,0.079-0.189,0.117c0.025-0.075,0.061-0.151,0.084-0.224c-0.063,0.037-0.129,0.079-0.191,0.117    c0.027-0.074,0.062-0.151,0.084-0.224c-0.062,0.037-0.127,0.079-0.189,0.117c0.027-0.074,0.061-0.15,0.084-0.223    c-0.063,0.037-0.128,0.079-0.189,0.117c0.025-0.074,0.061-0.151,0.084-0.224c-0.062,0.036-0.127,0.078-0.189,0.116    c0.027-0.074,0.061-0.15,0.084-0.222c-0.063,0.037-0.128,0.079-0.189,0.117c0.026-0.074,0.061-0.15,0.084-0.223    c-0.063,0.037-0.129,0.079-0.19,0.117c0.026-0.074,0.062-0.151,0.084-0.223c-0.062,0.037-0.128,0.079-0.19,0.117    c0.027-0.074,0.062-0.15,0.084-0.223c-0.062,0.037-0.127,0.079-0.189,0.117c0.027-0.074,0.061-0.15,0.084-0.223    c-0.063,0.037-0.128,0.079-0.189,0.117c0.026-0.074,0.061-0.151,0.084-0.224c-0.063,0.037-0.129,0.079-0.19,0.117    c0.026-0.074,0.062-0.15,0.084-0.223c-0.062,0.037-0.128,0.079-0.19,0.117c0.027-0.074,0.062-0.15,0.084-0.223    c-0.061,0.036-0.127,0.078-0.188,0.116c0.026-0.074,0.062-0.15,0.084-0.222c-0.062,0.037-0.128,0.079-0.19,0.117    c0.027-0.074,0.061-0.15,0.084-0.223c-0.062,0.037-0.128,0.079-0.189,0.117c0.027-0.074,0.061-0.151,0.084-0.223    c-0.063,0.037-0.129,0.079-0.19,0.117c0.027-0.074,0.062-0.15,0.084-0.223c-0.062,0.037-0.128,0.079-0.19,0.117    c0.027-0.074,0.062-0.15,0.084-0.223c-0.062,0.037-0.127,0.079-0.189,0.117c0.027-0.074,0.061-0.15,0.084-0.223    c-0.063,0.037-0.128,0.079-0.189,0.117c0.025-0.075,0.061-0.151,0.084-0.224c-0.062,0.036-0.127,0.079-0.189,0.116    c0.027-0.074,0.061-0.15,0.084-0.222c-0.063,0.037-0.128,0.079-0.189,0.117c0.026-0.074,0.061-0.15,0.084-0.223    c-0.063,0.037-0.129,0.079-0.19,0.117c0.026-0.074,0.062-0.15,0.084-0.223c-0.062,0.037-0.128,0.079-0.19,0.117    c0.027-0.074,0.062-0.15,0.084-0.223c-0.062,0.037-0.127,0.079-0.189,0.117c0.027-0.074,0.061-0.15,0.084-0.223    c-0.061,0.036-0.127,0.078-0.189,0.116c0.027-0.074,0.062-0.15,0.084-0.222c-0.062,0.037-0.127,0.079-0.19,0.117    c0.026-0.074,0.062-0.151,0.085-0.224c-0.063,0.037-0.129,0.079-0.19,0.117c0.027-0.074,0.062-0.15,0.084-0.223    c-0.062,0.037-0.129,0.079-0.19,0.118c0.027-0.074,0.061-0.151,0.084-0.224c-0.062,0.036-0.127,0.078-0.189,0.116    c0.027-0.074,0.061-0.15,0.084-0.223c-0.063,0.037-0.128,0.079-0.189,0.117c0.026-0.074,0.061-0.15,0.084-0.223    c-0.063,0.037-0.129,0.079-0.19,0.117c0.026-0.074,0.062-0.15,0.084-0.223c-0.062,0.036-0.127,0.078-0.188,0.116    c0.026-0.074,0.061-0.15,0.084-0.222c-0.063,0.037-0.129,0.079-0.19,0.117c0.026-0.074,0.062-0.151,0.084-0.224    c-0.062,0.037-0.128,0.079-0.19,0.117c0.027-0.074,0.062-0.15,0.084-0.223c-0.062,0.037-0.129,0.079-0.191,0.118    c0.027-0.075,0.063-0.152,0.085-0.225c-0.062,0.037-0.128,0.079-0.19,0.117c0.027-0.074,0.062-0.151,0.084-0.224    c-0.061,0.036-0.127,0.079-0.188,0.116c0.026-0.074,0.062-0.15,0.084-0.222c-0.062,0.037-0.128,0.079-0.19,0.117    c0.027-0.074,0.062-0.15,0.084-0.223c-0.062,0.037-0.128,0.079-0.189,0.117c0.027-0.074,0.061-0.15,0.084-0.223    c-0.061,0.036-0.127,0.078-0.189,0.116c0.027-0.074,0.061-0.15,0.084-0.222c-0.062,0.037-0.128,0.079-0.189,0.117    c0.025-0.075,0.061-0.151,0.084-0.224c-0.063,0.037-0.129,0.079-0.191,0.118c0.027-0.074,0.061-0.151,0.084-0.224    c-0.061,0.036-0.127,0.078-0.189,0.116c0.027-0.074,0.062-0.15,0.084-0.223c-0.062,0.037-0.127,0.079-0.19,0.117    c0.026-0.075,0.062-0.151,0.085-0.224c-0.063,0.037-0.128,0.079-0.189,0.117c0.026-0.074,0.061-0.15,0.084-0.222    c-0.063,0.037-0.129,0.079-0.19,0.117c0.026-0.074,0.062-0.15,0.084-0.223c-0.062,0.037-0.128,0.079-0.19,0.117    c0.026-0.075,0.062-0.151,0.084-0.224c-0.061,0.036-0.127,0.078-0.188,0.116c0.026-0.073,0.062-0.149,0.084-0.221    c-0.062,0.037-0.128,0.079-0.19,0.117c0.027-0.074,0.062-0.15,0.084-0.223c-0.062,0.037-0.127,0.079-0.189,0.117    c0.027-0.075,0.061-0.151,0.084-0.224c-0.063,0.037-0.128,0.079-0.189,0.117c0.026-0.074,0.061-0.15,0.084-0.223    c-0.063,0.037-0.129,0.079-0.191,0.117c0.027-0.074,0.062-0.15,0.084-0.223c-0.969,0.576-2.082,1.353-3.221,1.771    c-0.017-0.016-0.033-0.033-0.05-0.049c-0.036-0.036-0.071-0.073-0.108-0.108c-0.034-0.035-0.069-0.071-0.104-0.104    c-0.034-0.035-0.069-0.072-0.106-0.107c-0.035-0.035-0.069-0.071-0.104-0.105c-0.035-0.035-0.069-0.072-0.106-0.106    c-0.033-0.034-0.066-0.07-0.102-0.103c-0.038-0.037-0.074-0.076-0.113-0.113c-0.033-0.034-0.068-0.07-0.104-0.104    c-0.035-0.035-0.07-0.072-0.105-0.105c-0.035-0.036-0.072-0.073-0.107-0.108c-1.145-0.906-2.201-1.56-3.795-1.56    c-3.398,0-6,2.602-6,6c0,0.398,0.047,0.7,0.11,0.956l-0.11,0.044c-4.803,0-8.301-0.822-11.063-3.059    c-0.008-0.01-0.016-0.018-0.024-0.028c-0.001,0.002-0.002,0.004-0.003,0.006c-0.005-0.004-0.01-0.007-0.015-0.011    c-0.029-0.035-0.059-0.067-0.088-0.102c-0.002,0.003-0.004,0.007-0.006,0.01c-0.033-0.04-0.067-0.076-0.101-0.116    c-0.002,0.003-0.004,0.007-0.006,0.01c-0.033-0.04-0.067-0.076-0.101-0.116c-0.002,0.003-0.003,0.006-0.005,0.01    c-0.033-0.04-0.068-0.076-0.101-0.117c-0.002,0.003-0.003,0.007-0.005,0.01c-0.033-0.04-0.068-0.076-0.101-0.117    c-0.002,0.003-0.003,0.007-0.005,0.01c-0.033-0.04-0.068-0.075-0.101-0.116c-0.002,0.003-0.003,0.007-0.005,0.01    c-0.033-0.04-0.068-0.076-0.101-0.117c-0.002,0.003-0.003,0.006-0.005,0.01c-0.033-0.04-0.068-0.076-0.101-0.116    c-0.002,0.003-0.004,0.007-0.006,0.01c-0.033-0.04-0.067-0.076-0.101-0.116c-0.002,0.003-0.003,0.007-0.005,0.01    c-0.033-0.04-0.068-0.076-0.101-0.117c-0.002,0.003-0.003,0.007-0.005,0.01c-0.033-0.04-0.068-0.076-0.101-0.117    c-0.002,0.003-0.003,0.007-0.005,0.01c-0.033-0.04-0.068-0.076-0.101-0.117c-0.002,0.003-0.003,0.007-0.005,0.01    c-0.033-0.04-0.068-0.076-0.101-0.117c-0.002,0.003-0.003,0.007-0.005,0.01c-0.033-0.04-0.068-0.075-0.101-0.116    c-0.002,0.003-0.003,0.007-0.005,0.01c-0.033-0.04-0.068-0.076-0.101-0.116c-0.002,0.003-0.003,0.007-0.005,0.01    c-0.033-0.04-0.068-0.076-0.101-0.117c-0.002,0.003-0.003,0.007-0.005,0.01c-0.033-0.04-0.068-0.076-0.101-0.117    c-0.002,0.003-0.003,0.007-0.005,0.01c-0.033-0.04-0.068-0.076-0.101-0.117c-0.531,0.908-1,1.872-1,3    c0,1.625,0.783,3.03,1.885,4.097c0.035,0.035,0.069,0.07,0.104,0.104c0.036,0.037,0.072,0.073,0.109,0.109    c0.034,0.035,0.068,0.069,0.104,0.104c0.036,0.036,0.072,0.073,0.108,0.108c0.036,0.036,0.071,0.072,0.108,0.108    c0.034,0.034,0.068,0.068,0.103,0.103c0.036,0.036,0.071,0.072,0.107,0.107c0.036,0.036,0.07,0.071,0.106,0.106    c0.006,0.006,0.011,0.013,0.018,0.019c-0.95-0.09-1.991-0.538-2.754-0.959c0,1.341,0.85,2.775,2.039,4.001    c0.034,0.036,0.071,0.069,0.105,0.104c0.035,0.037,0.073,0.072,0.109,0.109c0.035,0.037,0.073,0.071,0.108,0.108    c0.033,0.034,0.07,0.067,0.104,0.103c0.034,0.036,0.071,0.07,0.105,0.105c0.035,0.037,0.074,0.072,0.109,0.109    c0.033,0.034,0.069,0.066,0.102,0.103c0.035,0.036,0.074,0.071,0.11,0.108c0.035,0.039,0.074,0.072,0.109,0.109    c0.031,0.033,0.065,0.063,0.097,0.098c0.037,0.037,0.076,0.074,0.113,0.112c0.035,0.037,0.073,0.072,0.108,0.108    c0.033,0.035,0.068,0.066,0.102,0.102c0.034,0.036,0.072,0.07,0.106,0.105c0.035,0.037,0.074,0.072,0.109,0.109    c0.032,0.034,0.066,0.065,0.099,0.1c0.037,0.037,0.076,0.074,0.112,0.113c0.035,0.037,0.073,0.07,0.108,0.107    c0.033,0.034,0.069,0.066,0.103,0.104c0.035,0.035,0.072,0.07,0.108,0.106c0.035,0.037,0.073,0.072,0.109,0.108    c0.032,0.035,0.068,0.066,0.101,0.102c0.035,0.037,0.073,0.072,0.108,0.107c0.034,0.037,0.072,0.07,0.107,0.106    c0.034,0.036,0.07,0.069,0.104,0.104c0.035,0.037,0.073,0.072,0.109,0.109c0.032,0.033,0.067,0.065,0.1,0.101    c0.036,0.038,0.075,0.073,0.112,0.112c0.034,0.035,0.071,0.068,0.105,0.104c0.034,0.035,0.071,0.069,0.105,0.104    c0.034,0.037,0.072,0.07,0.106,0.106c0.035,0.037,0.074,0.072,0.109,0.108c0.016,0.018,0.034,0.033,0.05,0.051    c-1.42,0.058-3.229-0.4-3.49-0.451c0.296,0.925,0.843,1.714,1.552,2.342c0.037,0.034,0.068,0.072,0.106,0.106    c0.037,0.034,0.069,0.073,0.107,0.106c0.037,0.034,0.069,0.073,0.106,0.106c0.038,0.034,0.07,0.073,0.108,0.106    c0.036,0.033,0.067,0.07,0.104,0.104s0.069,0.073,0.107,0.106c0.037,0.035,0.068,0.072,0.106,0.105    c0.037,0.035,0.068,0.073,0.106,0.105c0.037,0.035,0.068,0.072,0.105,0.105c0.037,0.034,0.069,0.073,0.106,0.107    c0.037,0.033,0.069,0.072,0.107,0.105c0.037,0.035,0.069,0.073,0.107,0.107c0.037,0.033,0.068,0.072,0.105,0.104    c0.037,0.034,0.068,0.072,0.105,0.105c0.037,0.034,0.07,0.073,0.108,0.106c0.036,0.034,0.066,0.071,0.103,0.104    c0.037,0.034,0.069,0.073,0.107,0.106c0.038,0.035,0.07,0.074,0.108,0.108c0.037,0.034,0.068,0.072,0.105,0.104    c0.037,0.035,0.069,0.074,0.107,0.107c0.037,0.033,0.068,0.072,0.105,0.104c0.037,0.035,0.069,0.074,0.107,0.107    c0.037,0.034,0.069,0.073,0.107,0.105c0.036,0.033,0.066,0.072,0.103,0.104c0.038,0.035,0.071,0.075,0.109,0.109    c0.035,0.032,0.064,0.069,0.1,0.101c-1.731,0.928-3.691,1.408-5.842,1.408c-0.498,0-0.987-0.029-1.469-0.084    c0.062,0.04,0.132,0.072,0.195,0.111c-0.029-0.004-0.06-0.002-0.088-0.006c0.062,0.041,0.132,0.072,0.195,0.111    c-0.029-0.003-0.06-0.002-0.088-0.005c0.062,0.04,0.132,0.072,0.195,0.111c-0.029-0.003-0.06-0.003-0.089-0.005    c0.062,0.039,0.132,0.072,0.195,0.111c-0.029-0.004-0.059-0.003-0.088-0.006c0.062,0.039,0.13,0.072,0.193,0.11    c-0.029-0.003-0.059-0.002-0.088-0.005c0.062,0.039,0.132,0.072,0.195,0.111c-0.029-0.004-0.059-0.002-0.088-0.006    c0.062,0.04,0.132,0.072,0.195,0.111c-0.029-0.003-0.06-0.002-0.089-0.005c0.062,0.04,0.132,0.071,0.195,0.11    c-0.029-0.002-0.06-0.002-0.088-0.004c0.062,0.039,0.132,0.071,0.195,0.11c-0.029-0.003-0.06-0.002-0.089-0.005    c0.062,0.04,0.132,0.072,0.195,0.111c-0.029-0.004-0.059-0.002-0.088-0.006c0.062,0.041,0.132,0.072,0.195,0.111    c-0.029-0.003-0.06-0.002-0.089-0.005c0.062,0.039,0.13,0.071,0.193,0.11c-0.028-0.004-0.058-0.002-0.086-0.006    c0.062,0.041,0.132,0.072,0.195,0.111c-0.029-0.003-0.06-0.002-0.089-0.005c0.062,0.04,0.132,0.072,0.195,0.11    c-0.029-0.002-0.059-0.002-0.088-0.004c0.062,0.039,0.132,0.072,0.195,0.11c-0.029-0.003-0.06-0.002-0.089-0.005    c0.062,0.04,0.132,0.072,0.195,0.111c-0.029-0.004-0.06-0.002-0.089-0.006c0.062,0.041,0.132,0.072,0.195,0.111    c-0.029-0.003-0.06-0.002-0.088-0.005c0.062,0.04,0.132,0.072,0.195,0.111c-0.029-0.003-0.06-0.002-0.088-0.005    c0.062,0.039,0.13,0.072,0.193,0.109c-0.029-0.002-0.059-0.002-0.087-0.005c0.062,0.04,0.132,0.072,0.195,0.111    c-0.029-0.003-0.06-0.002-0.088-0.005c0.062,0.04,0.132,0.072,0.195,0.111c-0.029-0.004-0.06-0.002-0.089-0.006    c0.062,0.041,0.132,0.072,0.195,0.111c-0.029-0.003-0.06-0.002-0.088-0.005c0.062,0.04,0.132,0.071,0.195,0.11    c-0.029-0.002-0.06-0.002-0.088-0.004c0.062,0.039,0.132,0.071,0.195,0.11c-0.029-0.003-0.06-0.002-0.089-0.005    c0.062,0.04,0.132,0.072,0.195,0.111c-0.029-0.004-0.06-0.002-0.088-0.006c0.062,0.041,0.132,0.072,0.195,0.111    c-0.029-0.003-0.06-0.002-0.088-0.005c0.062,0.039,0.13,0.072,0.193,0.11c-0.028-0.004-0.058-0.002-0.086-0.006    c0.062,0.041,0.132,0.072,0.195,0.111c-0.029-0.003-0.06-0.002-0.089-0.005c0.062,0.04,0.132,0.072,0.195,0.111    c-0.029-0.003-0.06-0.002-0.089-0.005c0.062,0.039,0.132,0.072,0.195,0.111c-0.029-0.004-0.06-0.002-0.088-0.006    c0.062,0.04,0.132,0.072,0.195,0.111c-0.029-0.003-0.06-0.002-0.088-0.005c0.062,0.04,0.132,0.071,0.195,0.11    c-0.029-0.002-0.06-0.002-0.089-0.004c0.062,0.039,0.132,0.071,0.195,0.11c-0.029-0.003-0.06-0.002-0.088-0.005    c0.062,0.039,0.13,0.072,0.193,0.109c-0.028-0.002-0.058-0.002-0.086-0.004c0.062,0.039,0.132,0.071,0.195,0.11    c-0.029-0.003-0.06-0.002-0.088-0.005c0.062,0.04,0.132,0.072,0.195,0.111c-0.029-0.004-0.06-0.002-0.088-0.006    c0.062,0.041,0.132,0.072,0.195,0.111c-0.029-0.003-0.06-0.002-0.089-0.005c0.062,0.04,0.132,0.071,0.195,0.11    c-0.029-0.002-0.06-0.002-0.088-0.004c0.062,0.039,0.132,0.071,0.195,0.11c-0.029-0.003-0.06-0.002-0.088-0.005    c0.062,0.039,0.13,0.072,0.193,0.109c-0.028-0.002-0.059-0.002-0.087-0.004c0.063,0.039,0.133,0.072,0.197,0.111    c-0.03-0.003-0.061-0.002-0.09-0.005c0.062,0.039,0.13,0.072,0.193,0.11c-0.029-0.004-0.059-0.002-0.087-0.006    c0.062,0.041,0.132,0.072,0.195,0.111c-0.029-0.002-0.059-0.002-0.088-0.005c0.062,0.04,0.132,0.072,0.195,0.111    c-0.029-0.003-0.06-0.002-0.089-0.005c0.062,0.039,0.132,0.072,0.195,0.111c-0.029-0.004-0.06-0.002-0.088-0.006    c0.062,0.041,0.132,0.072,0.195,0.111c-0.029-0.003-0.06-0.002-0.089-0.005c0.062,0.04,0.132,0.071,0.195,0.11    c-0.029-0.002-0.059-0.002-0.088-0.004c0.062,0.039,0.132,0.071,0.195,0.11c-0.029-0.003-0.06-0.002-0.089-0.005    c0.062,0.039,0.13,0.072,0.193,0.109c-0.028-0.002-0.058-0.002-0.086-0.004c0.062,0.039,0.132,0.071,0.195,0.11    c-0.029-0.003-0.06-0.002-0.089-0.005c0.062,0.04,0.132,0.072,0.195,0.111c-0.029-0.004-0.059-0.002-0.088-0.006    c0.062,0.041,0.132,0.072,0.195,0.111c-0.029-0.003-0.06-0.002-0.089-0.005c0.062,0.04,0.132,0.072,0.195,0.111    c-0.029-0.003-0.06-0.003-0.088-0.005c0.062,0.039,0.132,0.072,0.195,0.111c-0.029-0.004-0.06-0.003-0.088-0.006    c0.062,0.04,0.132,0.072,0.195,0.111c-0.029-0.003-0.06-0.002-0.089-0.006c0.062,0.039,0.13,0.072,0.193,0.111    c-0.028-0.004-0.059-0.002-0.087-0.006c0.062,0.04,0.132,0.072,0.195,0.111c-0.029-0.003-0.059-0.002-0.088-0.005    c0.062,0.04,0.132,0.071,0.195,0.11c-0.029-0.002-0.06-0.002-0.088-0.004c0.062,0.039,0.132,0.071,0.195,0.11    c-0.029-0.003-0.06-0.002-0.088-0.005c0.062,0.04,0.132,0.072,0.195,0.111c-0.029-0.004-0.06-0.002-0.088-0.006    c0.062,0.041,0.132,0.072,0.195,0.111c-0.029-0.003-0.06-0.002-0.089-0.005c0.062,0.04,0.132,0.071,0.195,0.11    c-0.029-0.002-0.059-0.002-0.088-0.004c0.062,0.039,0.132,0.071,0.195,0.11c-0.029-0.003-0.06-0.002-0.089-0.005    c0.062,0.039,0.13,0.072,0.193,0.109c-0.028-0.002-0.059-0.002-0.087-0.004c0.062,0.039,0.132,0.072,0.195,0.11    c-0.029-0.003-0.06-0.002-0.088-0.005c0.062,0.04,0.132,0.072,0.195,0.111c-0.029-0.004-0.06-0.002-0.088-0.006    c0.062,0.041,0.132,0.072,0.195,0.111c-0.029-0.003-0.06-0.002-0.088-0.005c0.062,0.04,0.132,0.072,0.195,0.111    c-0.029-0.003-0.06-0.002-0.088-0.005c0.062,0.039,0.132,0.072,0.195,0.111c-0.029-0.004-0.06-0.002-0.089-0.006    c0.062,0.04,0.132,0.072,0.195,0.111c-0.029-0.003-0.06-0.002-0.088-0.005c0.062,0.04,0.132,0.071,0.195,0.11    c-0.029-0.002-0.06-0.002-0.088-0.004c0.062,0.039,0.13,0.071,0.193,0.109c-0.028-0.003-0.059-0.002-0.087-0.005    c0.062,0.04,0.132,0.071,0.195,0.11c-0.029-0.002-0.06-0.002-0.088-0.004c0.062,0.039,0.132,0.071,0.195,0.11    c-0.029-0.003-0.06-0.002-0.088-0.005c0.062,0.04,0.132,0.072,0.195,0.111c-0.029-0.004-0.06-0.002-0.088-0.006    c0.062,0.041,0.132,0.072,0.195,0.111c-0.029-0.003-0.06-0.002-0.088-0.005c0.062,0.04,0.132,0.072,0.195,0.11    c-0.029-0.002-0.06-0.002-0.088-0.004c0.062,0.039,0.131,0.072,0.193,0.109c-0.029-0.003-0.059-0.002-0.088-0.005    c0.062,0.04,0.132,0.072,0.195,0.111c-0.029-0.003-0.059-0.003-0.088-0.005c0.062,0.039,0.132,0.072,0.195,0.111    c-0.029-0.004-0.06-0.002-0.088-0.006c0.062,0.04,0.132,0.072,0.195,0.111c-0.029-0.003-0.06-0.002-0.089-0.005    c0.062,0.038,0.13,0.071,0.193,0.11c-0.028-0.004-0.058-0.002-0.086-0.006c0.063,0.04,0.133,0.073,0.197,0.112    c-0.03-0.003-0.061-0.002-0.091-0.005c0.062,0.04,0.132,0.072,0.195,0.111c-0.029-0.004-0.059-0.002-0.088-0.006    c0.062,0.041,0.132,0.073,0.195,0.111c-0.029-0.003-0.06-0.002-0.089-0.005c0.062,0.039,0.13,0.071,0.193,0.11    c-0.029-0.004-0.059-0.002-0.087-0.006c0.062,0.041,0.132,0.072,0.195,0.111c-0.029-0.003-0.06-0.002-0.088-0.005    c0.062,0.04,0.132,0.071,0.195,0.11c-0.029-0.002-0.059-0.002-0.088-0.004c0.062,0.039,0.132,0.071,0.195,0.11    c-0.029-0.003-0.06-0.002-0.089-0.005c0.062,0.04,0.132,0.072,0.195,0.111c-0.029-0.004-0.06-0.002-0.088-0.006    c0.062,0.041,0.132,0.072,0.195,0.111c-0.029-0.003-0.06-0.002-0.089-0.005c0.062,0.04,0.132,0.072,0.195,0.111    c-0.029-0.003-0.059-0.002-0.088-0.005c0.062,0.039,0.13,0.072,0.193,0.109c-0.028-0.003-0.059-0.002-0.087-0.005    c0.062,0.04,0.132,0.072,0.195,0.111c-0.029-0.003-0.06-0.002-0.089-0.005c0.062,0.039,0.132,0.072,0.195,0.111    c-0.029-0.004-0.06-0.002-0.088-0.006c0.062,0.04,0.132,0.072,0.195,0.111c-0.029-0.003-0.06-0.002-0.088-0.005    c0.062,0.04,0.132,0.071,0.195,0.11c-0.029-0.002-0.06-0.002-0.088-0.004c0.062,0.039,0.13,0.071,0.193,0.109    c-0.029-0.003-0.059-0.002-0.088-0.005c0.063,0.04,0.133,0.073,0.197,0.112c-0.029-0.004-0.06-0.002-0.089-0.006    c0.062,0.041,0.132,0.072,0.195,0.111c-0.029-0.003-0.06-0.002-0.089-0.005c0.062,0.04,0.132,0.072,0.195,0.11    c-0.029-0.002-0.06-0.002-0.088-0.004c0.062,0.039,0.13,0.072,0.193,0.109c-0.029-0.003-0.059-0.002-0.087-0.005    c0.062,0.04,0.132,0.072,0.195,0.111c-0.029-0.003-0.06-0.003-0.088-0.005c0.062,0.039,0.132,0.072,0.195,0.111    c-0.029-0.004-0.06-0.003-0.088-0.006c0.062,0.04,0.132,0.072,0.195,0.111c-0.029-0.003-0.06-0.002-0.088-0.006    c0.062,0.041,0.132,0.072,0.195,0.111c-0.029-0.002-0.06-0.002-0.089-0.005c0.062,0.039,0.131,0.072,0.193,0.11    c-0.029-0.003-0.059-0.002-0.087-0.005c0.063,0.04,0.133,0.073,0.197,0.112c-0.029-0.004-0.06-0.002-0.089-0.006    c0.062,0.039,0.13,0.072,0.193,0.11c-0.029-0.003-0.059-0.002-0.088-0.005c0.062,0.04,0.132,0.072,0.195,0.111    c-0.029-0.004-0.06-0.002-0.088-0.006c0.062,0.041,0.132,0.072,0.195,0.111c-0.029-0.003-0.06-0.002-0.088-0.005    c0.062,0.04,0.132,0.071,0.195,0.11c-0.029-0.002-0.06-0.002-0.088-0.004c0.062,0.039,0.132,0.071,0.195,0.11    c-0.029-0.003-0.06-0.002-0.089-0.005c0.062,0.039,0.13,0.072,0.193,0.109c-0.028-0.002-0.058-0.002-0.086-0.004    c0.063,0.039,0.133,0.072,0.197,0.111c-0.03-0.003-0.061-0.002-0.091-0.005c0.062,0.04,0.132,0.072,0.195,0.111    c-0.029-0.003-0.059-0.003-0.087-0.005c0.062,0.039,0.131,0.072,0.193,0.109c-0.029-0.003-0.059-0.002-0.088-0.005    c0.062,0.04,0.132,0.072,0.195,0.111c-0.029-0.003-0.06-0.002-0.088-0.005c0.062,0.039,0.132,0.072,0.195,0.111    c-0.029-0.004-0.06-0.002-0.088-0.006c0.062,0.04,0.132,0.072,0.195,0.111c-0.029-0.003-0.06-0.002-0.088-0.005    c0.062,0.04,0.132,0.071,0.195,0.11c-0.029-0.002-0.06-0.002-0.089-0.004c0.062,0.039,0.13,0.071,0.193,0.109    c-0.029-0.003-0.059-0.002-0.087-0.005c0.062,0.04,0.132,0.071,0.195,0.11c-0.029-0.002-0.059-0.002-0.088-0.004    c0.062,0.039,0.132,0.071,0.195,0.11c-0.029-0.003-0.06-0.002-0.089-0.005c0.062,0.04,0.132,0.072,0.195,0.111    c-0.029-0.004-0.06-0.002-0.088-0.006c0.062,0.039,0.13,0.072,0.193,0.11c-0.028-0.003-0.058-0.002-0.087-0.005    c0.063,0.04,0.133,0.073,0.197,0.111c-0.03-0.002-0.061-0.002-0.09-0.004c0.062,0.039,0.132,0.072,0.195,0.11    c-0.029-0.003-0.06-0.002-0.088-0.005c0.062,0.04,0.132,0.072,0.195,0.111c-0.029-0.004-0.06-0.002-0.088-0.006    c0.062,0.039,0.13,0.072,0.193,0.111c-0.029-0.004-0.059-0.003-0.088-0.006c0.063,0.04,0.133,0.073,0.197,0.112    c-0.029-0.003-0.061-0.002-0.09-0.005c0.062,0.039,0.13,0.072,0.193,0.109c-0.029-0.002-0.059-0.002-0.087-0.005    c0.062,0.04,0.132,0.072,0.195,0.111c-0.029-0.003-0.06-0.002-0.088-0.005c0.062,0.04,0.132,0.072,0.195,0.111    c-0.029-0.004-0.06-0.002-0.089-0.006c0.062,0.041,0.132,0.072,0.195,0.111c-0.029-0.003-0.06-0.002-0.088-0.005    c0.062,0.04,0.132,0.071,0.195,0.11c-0.029-0.002-0.059-0.002-0.088-0.004c0.062,0.039,0.13,0.071,0.193,0.109    c-0.029-0.003-0.059-0.002-0.088-0.005c0.062,0.04,0.132,0.071,0.195,0.11c-0.029-0.002-0.06-0.002-0.088-0.004    c0.062,0.039,0.132,0.071,0.195,0.11c-0.029-0.003-0.06-0.002-0.088-0.005c0.062,0.04,0.132,0.072,0.195,0.111    c-0.029-0.004-0.059-0.002-0.088-0.006c0.062,0.041,0.132,0.072,0.195,0.111c-0.029-0.003-0.06-0.002-0.089-0.005    c0.062,0.039,0.13,0.072,0.193,0.11c-0.028-0.004-0.058-0.002-0.086-0.006c0.063,0.041,0.133,0.074,0.197,0.113    c-0.03-0.004-0.061-0.002-0.091-0.006c0.062,0.04,0.132,0.072,0.195,0.111c-0.029-0.003-0.059-0.002-0.088-0.005    c0.062,0.04,0.132,0.073,0.195,0.11c-0.03-0.002-0.061-0.002-0.09-0.004c0.062,0.038,0.131,0.071,0.193,0.109    c-0.029-0.003-0.06-0.002-0.088-0.005c0.063,0.04,0.133,0.071,0.195,0.11c-0.029-0.002-0.061-0.002-0.089-0.004    c0.063,0.039,0.132,0.071,0.194,0.11c-0.028-0.003-0.06-0.002-0.088-0.005c0.063,0.04,0.131,0.072,0.194,0.111    c-0.028-0.004-0.06-0.002-0.089-0.006c0.063,0.041,0.132,0.072,0.195,0.111c-0.03-0.003-0.062-0.002-0.09-0.005    c0.062,0.039,0.131,0.071,0.192,0.11c-0.028-0.004-0.06-0.002-0.087-0.006c0.063,0.041,0.133,0.073,0.197,0.112    c-0.03-0.003-0.063-0.002-0.092-0.005c0.063,0.039,0.131,0.072,0.193,0.109c-0.027-0.002-0.059-0.002-0.087-0.004    c0.063,0.039,0.132,0.072,0.195,0.11c-0.029-0.003-0.06-0.002-0.089-0.005c0.063,0.04,0.132,0.072,0.195,0.111    c-0.029-0.003-0.061-0.002-0.09-0.006c0.063,0.039,0.131,0.072,0.193,0.111c-0.028-0.004-0.059-0.002-0.088-0.006    c0.063,0.04,0.134,0.073,0.197,0.112c-0.029-0.003-0.062-0.002-0.091-0.005c0.062,0.039,0.132,0.072,0.193,0.109    c-0.029-0.002-0.06-0.002-0.088-0.004c0.063,0.039,0.133,0.072,0.196,0.111c-0.029-0.003-0.062-0.002-0.09-0.005    c0.062,0.039,0.131,0.071,0.192,0.11c-0.028-0.004-0.06-0.002-0.087-0.006c0.063,0.041,0.132,0.072,0.195,0.111    c-0.029-0.003-0.061-0.002-0.09-0.005c0.063,0.04,0.133,0.071,0.195,0.11c-0.029-0.002-0.061-0.002-0.089-0.004    c0.063,0.039,0.132,0.071,0.194,0.11c-0.028-0.003-0.06-0.002-0.088-0.005c0.063,0.04,0.131,0.072,0.194,0.111    c-0.028-0.004-0.06-0.002-0.089-0.006c0.063,0.039,0.131,0.072,0.193,0.11c-0.028-0.003-0.06-0.002-0.088-0.005    c0.063,0.04,0.134,0.073,0.197,0.112c-0.029-0.003-0.062-0.001-0.092-0.005c0.063,0.039,0.131,0.072,0.193,0.109    c-0.028-0.003-0.059-0.002-0.088-0.005c0.063,0.04,0.133,0.072,0.195,0.111c-0.029-0.003-0.06-0.002-0.089-0.005    c0.063,0.039,0.132,0.072,0.195,0.111c-0.029-0.004-0.06-0.002-0.089-0.006c0.063,0.04,0.132,0.072,0.195,0.111    c-0.029-0.003-0.061-0.002-0.09-0.005c0.063,0.04,0.133,0.071,0.195,0.11c-0.029-0.002-0.061-0.002-0.089-0.004    c0.062,0.038,0.131,0.071,0.192,0.109c-0.029-0.003-0.059-0.002-0.086-0.005c0.063,0.04,0.133,0.073,0.195,0.112    c-0.029-0.004-0.061-0.002-0.09-0.006c0.063,0.039,0.131,0.072,0.193,0.11c-0.029-0.003-0.061-0.002-0.088-0.005    c0.063,0.04,0.131,0.072,0.194,0.111c-0.028-0.004-0.06-0.002-0.088-0.006c0.063,0.041,0.132,0.073,0.194,0.111    c-0.028-0.003-0.061-0.002-0.09-0.005c0.063,0.04,0.133,0.072,0.195,0.11c-0.029-0.002-0.061-0.002-0.089-0.004    c0.063,0.039,0.132,0.072,0.194,0.11c-0.028-0.003-0.059-0.002-0.088-0.005c0.062,0.039,0.131,0.072,0.192,0.11    c-0.028-0.003-0.059-0.003-0.087-0.005c0.063,0.039,0.133,0.072,0.197,0.111c-0.03-0.003-0.063-0.002-0.092-0.005    c0.063,0.039,0.132,0.072,0.193,0.11c-0.029-0.003-0.06-0.002-0.088-0.006c0.063,0.041,0.133,0.074,0.197,0.113    c-0.03-0.004-0.063-0.002-0.092-0.006c0.063,0.039,0.132,0.072,0.193,0.11c-0.027-0.003-0.059-0.002-0.086-0.005    c0.063,0.04,0.131,0.072,0.194,0.111c-0.029-0.004-0.06-0.002-0.089-0.006c0.063,0.041,0.132,0.072,0.195,0.111    c-0.029-0.003-0.061-0.002-0.09-0.005c0.063,0.039,0.131,0.071,0.193,0.11c-0.029-0.004-0.059-0.002-0.088-0.006    c0.063,0.041,0.133,0.073,0.197,0.112c-0.029-0.003-0.062-0.002-0.09-0.005c0.062,0.039,0.131,0.072,0.192,0.109    c-0.028-0.002-0.06-0.002-0.088-0.004c0.063,0.039,0.133,0.072,0.196,0.111c-0.029-0.003-0.062-0.002-0.09-0.005    c0.062,0.039,0.131,0.072,0.192,0.11c-0.028-0.004-0.06-0.002-0.087-0.006c0.063,0.041,0.132,0.072,0.195,0.111    c-0.029-0.003-0.061-0.002-0.09-0.005c0.063,0.04,0.133,0.072,0.195,0.111c-0.029-0.003-0.06-0.003-0.089-0.005    c0.063,0.039,0.132,0.072,0.195,0.111c-0.03-0.004-0.062-0.002-0.091-0.006c0.063,0.04,0.133,0.072,0.195,0.111    c-0.029-0.003-0.06-0.002-0.088-0.005c0.063,0.038,0.131,0.071,0.193,0.11c-0.029-0.004-0.061-0.002-0.088-0.006    c0.063,0.04,0.133,0.073,0.197,0.112c-0.03-0.003-0.063-0.002-0.092-0.005c0.063,0.039,0.131,0.072,0.193,0.109    c-0.028-0.002-0.059-0.002-0.087-0.004c0.063,0.039,0.132,0.071,0.194,0.11c-0.028-0.003-0.06-0.002-0.088-0.005    c0.063,0.04,0.131,0.072,0.194,0.111c-0.028-0.004-0.06-0.002-0.089-0.006c0.063,0.041,0.132,0.072,0.195,0.111    c-0.029-0.003-0.061-0.002-0.09-0.005c0.063,0.04,0.133,0.071,0.195,0.11c-0.029-0.002-0.061-0.002-0.089-0.004    c0.062,0.039,0.131,0.071,0.192,0.109c-0.027-0.003-0.059-0.002-0.086-0.005c0.063,0.04,0.133,0.073,0.197,0.112    c-0.031-0.004-0.063-0.002-0.092-0.006c0.063,0.039,0.131,0.072,0.193,0.11c-0.029-0.003-0.059-0.002-0.088-0.005    c0.063,0.04,0.132,0.072,0.195,0.111c-0.029-0.004-0.061-0.002-0.09-0.006c0.063,0.041,0.133,0.072,0.195,0.111    c-0.029-0.003-0.061-0.002-0.09-0.005c0.063,0.04,0.133,0.072,0.195,0.111c-0.029-0.003-0.06-0.002-0.089-0.005    c0.063,0.039,0.132,0.072,0.195,0.111c-0.029-0.004-0.06-0.002-0.089-0.006c0.063,0.039,0.131,0.072,0.193,0.11    c-0.029-0.003-0.06-0.002-0.088-0.005c0.063,0.04,0.133,0.072,0.196,0.111c-0.028-0.002-0.062-0.002-0.09-0.004    c0.062,0.039,0.131,0.071,0.192,0.109c-0.028-0.003-0.06-0.002-0.088-0.005c0.063,0.04,0.133,0.073,0.196,0.112    c-0.028-0.004-0.062-0.002-0.09-0.006c0.062,0.039,0.131,0.072,0.192,0.11c-0.027-0.003-0.059-0.002-0.086-0.005    c0.063,0.04,0.131,0.072,0.194,0.111c-0.028-0.004-0.06-0.002-0.089-0.006c0.063,0.041,0.132,0.072,0.195,0.111    c-0.029-0.003-0.061-0.002-0.09-0.005c0.063,0.04,0.133,0.072,0.195,0.111c-0.029-0.003-0.061-0.003-0.09-0.005    c0.063,0.039,0.132,0.072,0.195,0.111c-0.029-0.004-0.061-0.003-0.088-0.006c0.062,0.039,0.131,0.072,0.193,0.11    c-0.029-0.003-0.061-0.002-0.089-0.005c0.063,0.039,0.134,0.072,0.196,0.111c-0.029-0.002-0.061-0.002-0.09-0.004    c0.062,0.038,0.131,0.071,0.193,0.109c-0.029-0.003-0.06-0.002-0.088-0.005c0.063,0.04,0.133,0.071,0.195,0.11    c-0.029-0.002-0.061-0.002-0.089-0.004c0.063,0.039,0.132,0.071,0.194,0.11c-0.028-0.003-0.06-0.002-0.088-0.005    c0.063,0.04,0.131,0.072,0.194,0.111c-0.03-0.004-0.062-0.002-0.09-0.006c0.063,0.041,0.132,0.072,0.194,0.111    c-0.028-0.003-0.06-0.002-0.088-0.005c0.063,0.039,0.131,0.071,0.193,0.11c-0.029-0.004-0.059-0.002-0.088-0.006    c0.063,0.041,0.133,0.074,0.195,0.112c-0.028-0.003-0.061-0.002-0.09-0.005c0.063,0.039,0.131,0.072,0.193,0.11    c-0.027-0.003-0.059-0.003-0.087-0.005c0.063,0.039,0.132,0.072,0.194,0.111c-0.028-0.004-0.06-0.003-0.088-0.006    c0.063,0.04,0.131,0.072,0.194,0.111c-0.028-0.003-0.06-0.002-0.089-0.006c0.063,0.041,0.133,0.072,0.195,0.111    c-0.029-0.002-0.061-0.002-0.09-0.005c0.063,0.04,0.133,0.073,0.195,0.111c-0.029-0.003-0.061-0.002-0.09-0.005    c0.063,0.04,0.133,0.072,0.194,0.111c-0.028-0.004-0.06-0.002-0.087-0.006c0.063,0.041,0.132,0.072,0.195,0.111    c-0.029-0.003-0.062-0.002-0.091-0.005c0.063,0.039,0.132,0.071,0.193,0.11c-0.028-0.004-0.06-0.002-0.087-0.006    c0.063,0.041,0.132,0.072,0.195,0.111c-0.029-0.003-0.061-0.002-0.09-0.005c0.063,0.04,0.133,0.071,0.195,0.11    c-0.029-0.002-0.061-0.002-0.089-0.004c0.063,0.039,0.132,0.071,0.194,0.11c-0.028-0.003-0.06-0.002-0.088-0.005    c0.063,0.04,0.131,0.072,0.194,0.111c-0.028-0.004-0.06-0.002-0.089-0.006c0.063,0.041,0.132,0.072,0.195,0.111    c-0.029-0.003-0.061-0.002-0.09-0.005c0.063,0.04,0.133,0.073,0.195,0.111c-0.029-0.003-0.061-0.002-0.09-0.005    c0.063,0.039,0.131,0.072,0.193,0.109c-0.028-0.002-0.06-0.002-0.088-0.005c0.063,0.04,0.133,0.072,0.195,0.111    c-0.029-0.003-0.06-0.002-0.089-0.005c0.063,0.04,0.132,0.072,0.195,0.111c-0.029-0.004-0.06-0.002-0.089-0.006    c0.063,0.041,0.132,0.072,0.195,0.111c-0.029-0.003-0.061-0.002-0.09-0.005c0.063,0.04,0.133,0.071,0.195,0.11    c-0.029-0.002-0.061-0.002-0.089-0.004c0.063,0.039,0.132,0.071,0.194,0.11c-0.029-0.003-0.061-0.002-0.09-0.005    c0.063,0.04,0.133,0.072,0.195,0.111c-0.029-0.004-0.061-0.002-0.088-0.006c0.063,0.039,0.131,0.072,0.193,0.11    c-0.029-0.003-0.061-0.002-0.088-0.005c0.063,0.04,0.131,0.072,0.194,0.111c-0.028-0.004-0.06-0.002-0.089-0.006    c0.063,0.041,0.132,0.072,0.195,0.111c-0.029-0.003-0.061-0.002-0.09-0.005c0.063,0.04,0.133,0.072,0.195,0.111    c-0.029-0.003-0.061-0.002-0.089-0.005c0.063,0.039,0.132,0.072,0.194,0.111c-0.028-0.004-0.06-0.002-0.088-0.006    c0.063,0.04,0.131,0.072,0.194,0.111c-0.03-0.003-0.062-0.002-0.09-0.005c0.063,0.04,0.132,0.071,0.194,0.11    c-0.028-0.002-0.059-0.002-0.088-0.004c0.063,0.038,0.132,0.071,0.193,0.109c-0.029-0.003-0.06-0.002-0.088-0.005    c0.063,0.04,0.133,0.071,0.195,0.11c-0.029-0.002-0.061-0.002-0.09-0.004c0.063,0.039,0.133,0.071,0.195,0.11    c-0.029-0.003-0.06-0.002-0.089-0.005c0.063,0.04,0.132,0.072,0.195,0.111c-0.029-0.004-0.06-0.002-0.089-0.006    c0.063,0.041,0.132,0.072,0.195,0.111c-0.029-0.003-0.061-0.002-0.09-0.005c0.063,0.04,0.133,0.072,0.195,0.11    c-0.029-0.002-0.061-0.002-0.09-0.004c0.063,0.039,0.132,0.072,0.195,0.11c-0.029-0.003-0.061-0.002-0.09-0.005    c0.063,0.039,0.131,0.072,0.193,0.11c-0.027-0.003-0.059-0.003-0.087-0.005c0.063,0.039,0.132,0.072,0.194,0.111    c-0.028-0.004-0.06-0.003-0.088-0.006c0.063,0.04,0.131,0.072,0.194,0.111c-0.028-0.003-0.06-0.002-0.089-0.005    c0.063,0.04,0.132,0.071,0.195,0.11c-0.029-0.002-0.061-0.002-0.09-0.004c0.063,0.039,0.133,0.071,0.195,0.11    c-0.029-0.003-0.06-0.002-0.089-0.005c0.063,0.04,0.132,0.072,0.195,0.111c-0.029-0.004-0.06-0.002-0.089-0.006    c0.063,0.041,0.132,0.073,0.195,0.111c-0.029-0.003-0.062-0.002-0.091-0.005c0.062,0.04,0.132,0.071,0.194,0.11    c-0.028-0.002-0.059-0.002-0.088-0.004c0.063,0.039,0.132,0.071,0.193,0.109c-0.029-0.003-0.06-0.002-0.088-0.005    c0.063,0.04,0.133,0.071,0.195,0.11c-0.029-0.002-0.061-0.002-0.089-0.004c0.063,0.039,0.132,0.071,0.194,0.11    c-0.028-0.003-0.06-0.002-0.088-0.005c0.063,0.04,0.131,0.072,0.194,0.111c-0.028-0.004-0.06-0.002-0.089-0.006    c0.063,0.041,0.132,0.072,0.195,0.111c-0.029-0.003-0.061-0.002-0.09-0.005c0.063,0.04,0.133,0.072,0.195,0.111    c-0.029-0.003-0.061-0.002-0.089-0.005c0.063,0.039,0.132,0.072,0.194,0.111c-0.028-0.004-0.061-0.002-0.09-0.006    c0.063,0.039,0.131,0.072,0.193,0.11c-0.027-0.003-0.059-0.002-0.087-0.005c0.062,0.04,0.132,0.072,0.194,0.111    c-0.028-0.004-0.06-0.002-0.088-0.006c0.063,0.041,0.131,0.072,0.194,0.111c-0.028-0.003-0.06-0.002-0.089-0.005    c0.063,0.04,0.132,0.071,0.195,0.11c-0.029-0.002-0.061-0.002-0.09-0.004c0.063,0.039,0.133,0.071,0.195,0.11    c-0.029-0.003-0.06-0.002-0.089-0.005c0.063,0.04,0.132,0.072,0.195,0.111c-0.029-0.004-0.06-0.002-0.089-0.006    c0.063,0.041,0.132,0.072,0.195,0.111c-0.029-0.003-0.062-0.002-0.091-0.005c0.062,0.039,0.132,0.072,0.193,0.11    c-0.028-0.004-0.06-0.002-0.087-0.006c0.063,0.041,0.132,0.072,0.195,0.111c-0.029-0.003-0.061-0.002-0.09-0.005    c0.063,0.04,0.133,0.072,0.195,0.111c-0.029-0.003-0.061-0.002-0.089-0.005c0.063,0.039,0.132,0.072,0.194,0.111    c-0.028-0.004-0.06-0.002-0.088-0.006c0.063,0.04,0.131,0.072,0.194,0.111c-0.028-0.003-0.06-0.002-0.089-0.005    c0.063,0.04,0.132,0.071,0.195,0.11c-0.029-0.002-0.061-0.002-0.09-0.004c0.063,0.039,0.133,0.071,0.195,0.11    c-0.029-0.003-0.061-0.002-0.09-0.005c0.063,0.039,0.131,0.072,0.193,0.109c-0.028-0.002-0.06-0.002-0.088-0.004    c0.063,0.039,0.133,0.071,0.194,0.11c-0.028-0.003-0.059-0.002-0.088-0.005c0.063,0.04,0.132,0.072,0.195,0.111    c-0.029-0.004-0.06-0.002-0.089-0.006c0.063,0.041,0.132,0.072,0.195,0.111c-0.029-0.003-0.061-0.002-0.09-0.005    c0.063,0.04,0.133,0.072,0.195,0.11c-0.029-0.002-0.061-0.002-0.09-0.004c0.063,0.039,0.133,0.072,0.195,0.11    c-0.029-0.003-0.06-0.002-0.088-0.005c0.063,0.04,0.131,0.072,0.194,0.111c-0.029-0.003-0.06-0.002-0.089-0.006    c0.063,0.039,0.131,0.072,0.193,0.111c-0.029-0.004-0.061-0.002-0.088-0.006c0.063,0.04,0.131,0.072,0.194,0.111    c-0.028-0.003-0.06-0.002-0.089-0.005c0.063,0.04,0.132,0.071,0.195,0.11c-0.029-0.002-0.061-0.002-0.09-0.004    c0.063,0.039,0.133,0.071,0.195,0.11c-0.029-0.003-0.061-0.002-0.089-0.005c2.724,1.744,6.522,2.574,10,2.574    c11.321,0,17-8.867,17-17c0-0.269,0.008-0.736,0-1C77.172,57.632,78.143,56.441,78.971,55.209z" enable-background="new    " fill="url(#SVGID_3_)" opacity="0.3"/></g></g><path d="M47,23.209c-1.105,0.49-2.756,1.142-4,1.291c1.273-0.762,2.539-2.561,3-4  c-0.971,0.577-2.087,1.355-3.227,1.773L42,21.5c-1.121-1.197-2.23-2-4-2c-3.398,0-6,2.602-6,6c0,0.398,0.047,0.7,0.11,0.956L32,26.5  c-6,0-9.966-1.276-13-5c-0.531,0.908-1,1.872-1,3c0,2.136,1.348,3.894,3,5c-1.009-0.033-2.171-0.542-3-1c0,2.98,4.186,6.432,7,7  c-1,1-4.623,0.074-5,0c0.784,2.447,3.309,3.949,6,4c-2.105,1.648-4.647,2.51-7.531,2.51c-0.498,0-0.987-0.029-1.469-0.084  c2.723,1.744,6.523,2.574,10,2.574c11.322,0,17-8.867,17-17c0-0.268,0.008-0.736,0-1C45.201,25.632,46.172,24.441,47,23.209z" fill="#FFFFFF" id="Brid_1_"/></svg>