<?xml version="1.0" encoding="iso-8859-1"?>
<!-- Generator: Adobe Illustrator 19.0.0, SVG Export Plug-In . SVG Version: 6.00 Build 0)  -->
<svg version="1.1" id="Capa_1" xmlns="http://www.w3.org/2000/svg" xmlns:xlink="http://www.w3.org/1999/xlink" x="0px" y="0px"
	 viewBox="0 0 511.997 511.997" style="enable-background:new 0 0 511.997 511.997;" xml:space="preserve">
<path style="fill:#FF3C63;" d="M220.089,242.291c0,0-43.325-5.576-42.804,41.833c0,0-42.721-16.15-48.972,29.175
	c0,0-53.14,8.336-48.972,61.476s62.518,44.284,74.501,37.511c0,0,20.318,59.913,101.592,21.36c0,0,6.252,40.116,81.273,31.259
	l32.301,39.595h11.462l-12.504-63.039c0,0,30.217,4.168,32.301-28.133c0,0,33.343-38.032-17.192-60.955
	c0,0,16-105.395-89.609-102.634C293.464,249.739,269.144,210.877,220.089,242.291z"/>
<path style="fill:#EA2F5C;" d="M380.468,504.5h-11.462l-32.301-39.595c-75.022,8.857-81.273-31.259-81.273-31.259
	c-81.273,38.553-101.592-21.36-101.592-21.36c-11.983,6.773-70.333,15.63-74.501-37.511c-0.604-7.752,0-14.556,1.5-20.506
	c10.159,42.273,61.81,34.124,73,27.8c0,0,20.318,59.913,101.592,21.36c0,0,6.252,40.116,81.273,31.259l32.301,39.595h5.47
	L380.468,504.5z"/>
<path style="fill:#FFDA2D;" d="M351.096,95.524c0-48.614-39.409-88.024-88.023-88.024c-48.375-0.001-87.608,38.88-88.022,87.253
	c-0.19,22.225,7.858,42.566,21.274,58.155c18.192,21.138,28.293,48.044,28.293,75.933v13.14h76.908v-13.137
	c0-28.041,10.394-54.926,28.58-76.271C343.196,137.21,351.096,117.29,351.096,95.524z"/>
<g>
	<path style="fill:#FFE571;" d="M217.218,149.047c18.194,21.135,28.296,48.039,28.296,75.93v17.005h-20.895v-13.143
		c0-27.891-10.102-54.795-28.296-75.929c-13.411-15.586-21.457-35.928-21.273-58.159c0.396-46.49,36.656-84.216,82.427-87.073
		c-35.449,11.143-61.201,44.066-61.533,83.211C195.752,113.11,203.798,133.452,217.218,149.047z"/>
	<path style="fill:#FFE571;" d="M308.926,149.047c-18.194,21.135-28.296,48.039-28.296,75.93v17.005h20.895v-13.143
		c0-27.891,10.102-54.795,28.296-75.929c13.411-15.586,21.457-35.928,21.273-58.159c-0.396-46.49-36.656-84.216-82.427-87.073
		c35.449,11.143,61.201,44.066,61.533,83.211C330.392,113.11,322.346,133.452,308.926,149.047z"/>
</g>
<rect x="220.088" y="241.98" style="fill:#E0E0E3;" width="85.967" height="56.997"/>
<path style="fill:#FF557E;" d="M340.959,315.353c1.629,0.707-2.126-3.087-3.193-4.514c-36.367-48.65-75.266-8.626-75.266-8.626
	c-47.722-35.24-77.315,22.439-77.315,22.439s44.545-33.695,75.804,6.125C260.989,330.776,285.649,291.355,340.959,315.353z"/>
<g>
	<polygon style="fill:#00DDC0;" points="385.552,233.251 436.561,224.811 393.993,182.242 	"/>
	<polygon style="fill:#00DDC0;" points="160.068,233.251 109.06,224.811 151.628,182.242 	"/>
</g>
<path d="M103.536,330.767c1.398,0,2.814-0.391,4.075-1.209c10.76-6.979,21.774-8.835,21.863-8.85
	c3.269-0.513,5.815-3.106,6.268-6.385c1.514-10.974,5.499-18.466,11.845-22.267c11.148-6.674,26.911-0.966,27.046-0.917
	c2.319,0.875,4.919,0.551,6.95-0.869c2.03-1.42,3.229-3.751,3.202-6.229c-0.136-12.337,3.006-21.474,9.339-27.156
	c5.724-5.136,13.18-6.724,18.464-7.15v37.87c-21.567,9.695-33.515,32.531-34.075,33.622c-1.889,3.68-0.438,8.188,3.238,10.083
	c1.098,0.566,2.271,0.835,3.427,0.835c2.716,0,5.339-1.479,6.674-4.056c0.125-0.241,12.762-24.217,33.203-28.965
	c10.421-2.42,21.518,0.649,32.99,9.121c3.019,2.229,7.22,1.884,9.833-0.806c0.144-0.146,14.535-14.708,32.621-13.084
	c12.258,1.108,23.774,9.578,34.23,25.174c2.307,3.439,6.965,4.358,10.406,2.053c3.44-2.307,4.359-6.966,2.053-10.406
	c-10.013-14.934-21.29-24.678-33.631-29.135v-23.838c16.984,2.267,30.715,8.341,40.871,18.116c1.455,1.4,3.328,2.097,5.2,2.097
	c1.968,0,3.933-0.77,5.404-2.299c2.873-2.984,2.782-7.732-0.202-10.604c-12.924-12.44-30.16-19.958-51.273-22.418v-1.115
	c0-3.087-1.866-5.737-4.531-6.887v-6.25c0-25.771,9.514-51.13,26.789-71.406c11.021-12.936,18.396-28.582,21.331-45.248
	c0.718-4.08-2.007-7.969-6.086-8.688c-4.087-0.722-7.97,2.008-8.688,6.086c-2.471,14.037-8.687,27.219-17.976,38.121
	c-19.585,22.987-30.371,51.802-30.371,81.135v5.637h-10.243v-26.96c0-4.143-3.357-7.5-7.5-7.5s-7.5,3.357-7.5,7.5v1.257h-11.422
	v-1.257c0-4.143-3.357-7.5-7.5-7.5s-7.5,3.357-7.5,7.5v26.961h-10.242v-5.639c0-29.562-10.692-58.266-30.108-80.826
	c-12.715-14.774-19.626-33.667-19.458-53.197c0.376-44.013,36.498-79.82,80.521-79.819c39.477,0,72.872,28.206,79.405,67.067
	c0.687,4.084,4.553,6.837,8.64,6.153c4.085-0.688,6.84-4.556,6.153-8.64c-3.701-22.012-15.136-42.158-32.199-56.729
	C307.814,8.116,285.796,0,263.073,0c-0.001,0,0,0-0.002,0c-25.387,0-49.279,9.823-67.274,27.659
	c-17.996,17.839-28.027,41.645-28.245,67.03c-0.198,23.167,8.001,45.58,23.089,63.111c17.074,19.839,26.478,45.069,26.478,71.041
	v5.764c-6.918-0.137-21.554,0.927-32.884,11.002c-7.845,6.977-12.525,16.72-13.971,29.044c-8.092-1.347-19.933-1.672-30.281,4.476
	c-9.311,5.533-15.418,14.929-18.197,27.971c-5.305,1.433-13.829,4.356-22.338,9.876c-3.475,2.254-4.464,6.898-2.21,10.374
	C98.674,329.562,101.08,330.767,103.536,330.767z M298.558,249.481v10.874h-70.97v-10.874L298.558,249.481L298.558,249.481z
	 M261.944,292.745c-11.498-7.269-23.011-10.342-34.356-9.199v-8.19h70.97v3.884C282.118,278.933,268.735,287.387,261.944,292.745z
	 M257.361,223.776h11.422v10.704h-11.422V223.776z"/>
<path d="M391.078,347.937c0.796-10.362,1.168-33.481-8.136-55.593c-1.607-3.817-6.003-5.609-9.822-4.004
	c-3.817,1.606-5.61,6.004-4.004,9.822c10.548,25.066,6.582,52.818,6.542,53.085c-0.504,3.319,1.26,6.569,4.316,7.956
	c13.396,6.077,21.166,13.602,23.091,22.365c2.951,13.437-8.343,26.703-8.439,26.815c-1.09,1.243-1.738,2.812-1.845,4.462
	c-0.493,7.646-2.868,13.279-7.058,16.744c-3.719,3.076-8.371,4.114-11.826,4.425l-6.974-29.202
	c-0.962-4.029-5.002-6.514-9.037-5.553c-4.028,0.962-6.515,5.008-5.553,9.037l8.304,34.774l10.301,51.933l-28.422-34.84
	c-1.621-1.985-4.145-3.016-6.69-2.707c-65.302,7.715-72.584-22.984-72.99-25.012c-0.313-2.366-1.72-4.337-3.815-5.485
	c-2.108-1.155-4.63-1.119-6.804-0.09c-26.821,12.723-49.126,15.544-66.296,8.381c-18.616-7.766-24.93-25.234-24.979-25.374
	c-0.718-2.115-2.341-3.801-4.428-4.598c-2.087-0.798-4.42-0.622-6.365,0.478c-5.137,2.901-28.646,8.138-45.689-0.933
	c-10.554-5.616-16.49-15.924-17.645-30.636c-0.647-8.257,0.219-15.775,2.576-22.347c1.398-3.899-0.629-8.193-4.527-9.592
	c-3.898-1.395-8.192,0.628-9.592,4.527c-3.078,8.582-4.226,18.199-3.411,28.585c1.97,25.104,14.982,37.079,25.552,42.703
	c17.141,9.122,39.417,7.72,52.63,3.771c4.334,7.831,13.382,20.18,29.81,27.135c19.574,8.284,43.538,6.532,71.322-5.197
	c6.522,12.927,25.959,34.559,82.291,29.025l29.729,36.441c1.425,1.746,3.559,2.759,5.812,2.759h11.462
	c2.245,0,4.372-1.006,5.796-2.74c1.425-1.735,1.998-4.017,1.561-6.219l-10.771-54.307c5.436-0.725,12.205-2.666,18.076-7.46
	c7.083-5.781,11.253-14.201,12.414-25.054c4.058-5.402,13.884-20.674,10.199-37.744C415.067,366.08,406.106,355.824,391.078,347.937
	z"/>
<path d="M145.526,350.773c-9.719,0.518-15.935,7.329-16.611,8.104l5.649,4.934l5.584,5.007c0.018-0.02,1.827-1.953,4.428-2.749
	c1.891-0.577,4.926-0.873,9.381,3.248c1.443,1.335,3.27,1.994,5.091,1.994c2.018,0,4.03-0.81,5.508-2.407
	c2.813-3.041,2.628-7.786-0.413-10.599C156.939,351.642,150.034,350.525,145.526,350.773z"/>
<path d="M322.852,351.811c8.573-3.275,18.144-2.545,28.444,2.172c3.769,1.726,8.219,0.068,9.941-3.697
	c1.725-3.766,0.069-8.217-3.697-9.941c-14.145-6.476-27.657-7.314-40.163-2.499c-14.579,5.615-24.085,17.671-29.059,25.663
	c-11.411-6.231-22.908-7.304-32.165-6.564c-16.916,1.364-29.713,9.006-30.249,9.33c-3.536,2.14-4.664,6.731-2.536,10.273
	c2.129,3.542,6.73,4.688,10.282,2.572c1.65-0.986,40.717-23.664,66.093,15.857c1.434,2.231,3.851,3.449,6.318,3.449
	c1.388,0,2.791-0.385,4.045-1.189c3.486-2.238,4.497-6.878,2.26-10.364c-3.75-5.84-7.752-10.608-11.882-14.49
	C304.121,366.305,311.608,356.105,322.852,351.811z"/>
<path d="M462.727,300.267h-7.419v-7.419c0-4.143-3.357-7.5-7.5-7.5s-7.5,3.357-7.5,7.5v7.419h-7.42c-4.143,0-7.5,3.357-7.5,7.5
	s3.357,7.5,7.5,7.5h7.42v7.42c0,4.143,3.357,7.5,7.5,7.5s7.5-3.357,7.5-7.5v-7.42h7.419c4.143,0,7.5-3.357,7.5-7.5
	S466.869,300.267,462.727,300.267z"/>
<path d="M119.644,144.186h7.42v7.419c0,4.143,3.357,7.5,7.5,7.5s7.5-3.357,7.5-7.5v-7.419h7.419c4.143,0,7.5-3.357,7.5-7.5
	s-3.357-7.5-7.5-7.5h-7.419v-7.42c0-4.143-3.357-7.5-7.5-7.5s-7.5,3.357-7.5,7.5v7.42h-7.42c-4.143,0-7.5,3.357-7.5,7.5
	S115.502,144.186,119.644,144.186z"/>
<path d="M71.688,282.153h7.42c4.143,0,7.5-3.357,7.5-7.5s-3.357-7.5-7.5-7.5h-7.42v-7.42c0-4.143-3.357-7.5-7.5-7.5
	c-4.143,0-7.5,3.357-7.5,7.5v7.42h-7.419c-4.143,0-7.5,3.357-7.5,7.5s3.357,7.5,7.5,7.5h7.419v7.419c0,4.143,3.357,7.5,7.5,7.5
	s7.5-3.357,7.5-7.5V282.153z"/>
<path d="M385.553,240.751c0.406,0,0.816-0.033,1.225-0.101l51.009-8.44c2.773-0.459,5.057-2.43,5.916-5.106s0.15-5.608-1.837-7.597
	l-42.569-42.568c-1.987-1.988-4.92-2.697-7.597-1.837c-2.677,0.859-4.647,3.144-5.106,5.916l-8.439,51.009
	c-0.395,2.387,0.386,4.817,2.096,6.528C381.668,239.973,383.58,240.751,385.553,240.751z M399.009,197.865l21.929,21.929
	l-26.275,4.348L399.009,197.865z"/>
<path d="M107.835,232.21l51.009,8.44c0.408,0.067,0.817,0.101,1.225,0.101c1.973,0,3.886-0.779,5.304-2.196
	c1.71-1.711,2.49-4.142,2.096-6.528l-8.44-51.009c-0.459-2.773-2.43-5.057-5.106-5.916c-2.678-0.86-5.609-0.151-7.597,1.837
	l-42.568,42.568c-1.987,1.988-2.696,4.92-1.837,7.597C102.78,229.781,105.061,231.751,107.835,232.21z M146.611,197.865
	l4.348,26.276l-26.276-4.348L146.611,197.865z"/>
<g>
</g>
<g>
</g>
<g>
</g>
<g>
</g>
<g>
</g>
<g>
</g>
<g>
</g>
<g>
</g>
<g>
</g>
<g>
</g>
<g>
</g>
<g>
</g>
<g>
</g>
<g>
</g>
<g>
</g>
</svg>
