<?xml version="1.0" ?><!DOCTYPE svg  PUBLIC '-//W3C//DTD SVG 1.1//EN'  'http://www.w3.org/Graphics/SVG/1.1/DTD/svg11.dtd'><svg enable-background="new 0 0 64 64" height="64px" id="Facebook" version="1.1" viewBox="0 0 64 64" width="64px" xml:space="preserve" xmlns="http://www.w3.org/2000/svg" xmlns:xlink="http://www.w3.org/1999/xlink"><linearGradient gradientTransform="matrix(1 0 0 -1 -822 -1026)" gradientUnits="userSpaceOnUse" id="Circle_Shadow_1_" x1="886.0303" x2="854.0302" y1="-1089.9985" y2="-1057.9985"><stop offset="0.3163" style="stop-color:#FFFFFF;stop-opacity:0"/><stop offset="0.3508" style="stop-color:#E9E9E9;stop-opacity:0.0504"/><stop offset="0.4543" style="stop-color:#ACACAC;stop-opacity:0.2018"/><stop offset="0.5572" style="stop-color:#787878;stop-opacity:0.3523"/><stop offset="0.6569" style="stop-color:#4D4D4D;stop-opacity:0.4981"/><stop offset="0.7528" style="stop-color:#2B2B2B;stop-opacity:0.6385"/><stop offset="0.8441" style="stop-color:#131313;stop-opacity:0.7719"/><stop offset="0.9286" style="stop-color:#050505;stop-opacity:0.8956"/><stop offset="1" style="stop-color:#000000"/></linearGradient><polygon enable-background="new    " fill="url(#Circle_Shadow_1_)" id="Circle_Shadow" opacity="0.2" points="64.029,64   64.029,30.059 49,15.029 15.059,48.971 30.088,64 "/><circle cx="32" cy="32" fill="#3A5BA0" id="Circle" r="24"/><g id="f_shadow"><g><defs><circle cx="32.029" cy="32" id="SVGID_1_" r="24"/></defs><clipPath id="SVGID_2_"><use overflow="visible" xlink:href="#SVGID_1_"/></clipPath><linearGradient gradientTransform="matrix(1 0 0 -1 -274 -299)" gradientUnits="userSpaceOnUse" id="SVGID_3_" x1="349.4473" x2="298.6123" y1="-367.8916" y2="-325.236"><stop offset="0.5816" style="stop-color:#000000;stop-opacity:0"/><stop offset="0.6306" style="stop-color:#000000;stop-opacity:0.117"/><stop offset="1" style="stop-color:#000000"/></linearGradient><path clip-path="url(#SVGID_2_)" d="M70.029,54h2v-5    c0,0-0.039,0-0.105,0v-0.105c0,0-0.04,0-0.107,0v-0.106c0,0-0.039,0-0.105,0v-0.106c0,0-0.04,0-0.105,0v-0.104    c0,0-0.041,0-0.106,0v-0.106c0,0-0.04,0-0.106,0v-0.105c0,0-0.039,0-0.105,0v-0.106c0,0-0.04,0-0.105,0v-0.106    c0,0-0.041,0-0.106,0v-0.105c0,0-0.04,0-0.106,0v-0.105c0,0-0.039,0-0.105,0V47.83c0,0-0.039,0-0.105,0v-0.105c0,0-0.04,0-0.105,0    v-0.105c0,0-0.041,0-0.106,0v-0.105c0,0-0.04,0-0.106,0v-0.106c0,0-0.039,0-0.105,0v-0.106c0,0-0.04,0-0.105,0v-0.105    c0,0-0.041,0-0.106,0v-0.106c0,0-0.04,0-0.106,0V46.98c0,0-0.039,0-0.105,0v-0.106c0,0-0.04,0-0.106,0v-0.106c0,0-0.04,0-0.106,0    v-0.105c0,0-0.039,0-0.105,0v-0.105c0,0-0.04,0-0.105,0V46.45c0,0-0.041,0-0.106,0v-0.106c0,0-0.04,0-0.106,0v-0.104    c0,0-0.039,0-0.105,0V46.13c0,0-0.04,0-0.105,0v-0.106c0,0-0.041,0-0.106,0v-0.105c0,0-0.04,0-0.106,0v-0.105c0,0-0.039,0-0.105,0    v-0.106c0,0-0.04,0-0.106,0v-0.104c0,0-0.04,0-0.106,0v-0.107c0,0-0.039,0-0.104,0v-0.105c0,0-0.04,0-0.106,0v-0.105    c0,0-0.039,0-0.105,0v-0.106c0,0-0.04,0-0.105,0V45.07c0,0-0.041,0-0.106,0v-0.11c0,0-0.04,0-0.106,0v-0.106c0,0-0.039,0-0.105,0    v-0.105c0,0-0.04,0-0.105,0v-0.105c0,0-0.041,0-0.106,0v-0.105c0,0-0.04,0-0.106,0v-0.105c0,0-0.039,0-0.105,0v-0.106    c0,0-0.041,0-0.106,0v-0.106c0,0-0.04,0-0.106,0v-0.105c0,0-0.039,0-0.105,0v-0.105c0,0-0.04,0-0.105,0V43.9c0,0-0.041,0-0.106,0    v-0.104c0,0-0.04,0-0.106,0v-0.106c0,0-0.039,0-0.105,0v-0.105c0,0-0.04,0-0.105,0v-0.105c0,0-0.041,0-0.106,0v-0.106    c0,0-0.04,0-0.106,0V43.26c0,0-0.04,0-0.105,0v-0.107c0,0-0.041,0-0.106,0v-0.104c0,0-0.04,0-0.106,0v-0.108c0,0-0.039,0-0.105,0    v-0.105c0,0-0.04,0-0.105,0v-0.105c0,0-0.041,0-0.106,0v-0.106c0,0-0.04,0-0.106,0v-0.106c0,0-0.039,0-0.105,0v-0.104    c0,0-0.04,0-0.105,0v-0.106c0,0-0.041,0-0.106,0v-0.105c0,0-0.039,0-0.105,0V42.09c0,0-0.04,0-0.106,0v-0.105c0,0-0.039,0-0.105,0    v-0.106c0,0-0.04,0-0.107,0v-0.106c0,0-0.039,0-0.104,0v-0.104c0,0-0.04,0-0.106,0v-0.106c0,0-0.039,0-0.105,0v-0.105    c0,0-0.04,0-0.105,0V41.35c0,0-0.041,0-0.106,0v-0.106c0,0-0.04,0-0.106,0v-0.106c0,0-0.039,0-0.105,0v-0.105c0,0-0.04,0-0.106,0    V40.92c0,0-0.04,0-0.106,0v-0.105c0,0-0.039,0-0.105,0v-0.106c0,0-0.04,0-0.105,0v-0.104c0,0-0.041,0-0.106,0v-0.106    c0,0-0.04,0-0.106,0v-0.106c0,0-0.039,0-0.105,0v-0.105c0,0-0.04,0-0.105,0V40.18c0,0-0.041,0-0.106,0V40.07c0,0-0.04,0-0.106,0    v-0.107c0,0-0.039,0-0.105,0v-0.105c0,0-0.04,0-0.106,0v-0.105c0,0-0.04,0-0.106,0v-0.105c0,0-0.039,0-0.105,0V39.54    c0,0-0.04,0-0.105,0v-0.106c0,0-0.041,0-0.106,0v-0.104c0,0-0.04,0-0.106,0v-0.108c0,0-0.039,0-0.105,0v-0.106    c0,0-0.039,0-0.105,0v-0.106c0,0-0.039,0-0.106,0V38.9c0,0-0.039,0-0.104,0v-0.106c0,0-0.041,0-0.107,0v-0.106    c0,0-0.039,0-0.105,0v-0.104c0,0-0.039,0-0.107,0v-0.106c0,0-0.038,0-0.104,0v-0.105c0,0-0.04,0-0.106,0v-0.105    c0,0-0.039,0-0.105,0v-0.106c0,0-0.04,0-0.105,0V38.05c0,0-0.041,0-0.106,0v-0.106c0,0-0.04,0-0.106,0v-0.105c0,0-0.039,0-0.105,0    V37.73c0,0-0.04,0-0.105,0v-0.105c0,0-0.041,0-0.106,0v-0.107c0,0-0.04,0-0.106,0v-0.104c0,0-0.039,0-0.105,0v-0.106    c0,0-0.04,0-0.106,0v-0.105c0,0-0.04,0-0.106,0v-0.105c0,0-0.039,0-0.105,0v-0.106c0,0-0.04,0-0.105,0v-0.105c0,0-0.041,0-0.106,0    v-0.106c0,0-0.04,0-0.106,0v-0.105c0,0-0.039,0-0.105,0v-0.105c0,0-0.04,0-0.105,0V36.46c0,0-0.041,0-0.106,0v-0.106    c0,0-0.04,0-0.106,0v-0.105c0,0-0.039,0-0.105,0v-0.105c0,0-0.04,0-0.106,0v-0.113c0,0-0.04,0-0.106,0v-0.105c0,0-0.038,0-0.104,0    v-0.105c0,0-0.04,0-0.106,0v-0.106c0,0-0.039,0-0.105,0v-0.104c0,0-0.04,0-0.105,0V35.5c0,0-0.041,0-0.106,0v-0.105    c0,0-0.04,0-0.106,0v-0.105c0,0-0.039,0-0.105,0V35.18c0,0-0.04,0-0.105,0v-0.105c0,0-0.041,0-0.106,0v-0.106c0,0-0.04,0-0.106,0    v-0.108c0,0-0.039,0-0.105,0v-0.105c0,0-0.04,0-0.106,0v-0.105c0,0-0.04,0-0.106,0v-0.105c0,0-0.039,0-0.105,0v-0.105    c0,0-0.04,0-0.105,0v-0.106c0,0-0.041,0-0.106,0v-0.106c0,0-0.04,0-0.106,0v-0.105c0,0-0.039,0-0.105,0V34.01c0,0-0.04,0-0.105,0    v-0.105c0,0-0.041,0-0.106,0v-0.106c0,0-0.04,0-0.106,0v-0.104c0,0-0.039,0-0.105,0v-0.106c0,0-0.04,0-0.106,0V33.48    c0,0-0.038,0-0.104,0v-0.105c0,0-0.04,0-0.106,0V33.27c0,0-0.04,0-0.106,0v-0.106c0,0-0.039,0-0.105,0v-0.106c0,0-0.04,0-0.107,0    v-0.105c0,0-0.039,0-0.104,0v-0.105c0,0-0.04,0-0.106,0V32.74c0,0-0.039,0-0.105,0v-0.106c0,0-0.04,0-0.105,0v-0.106    c0,0-0.041,0-0.106,0v-0.105c0,0-0.04,0-0.106,0V32.31c0,0-0.039,0-0.105,0v-0.107c0,0-0.04,0-0.106,0v-0.106c0,0-0.04,0-0.106,0    V31.99c0,0-0.039,0-0.105,0v-0.106c0,0-0.04,0-0.105,0v-0.107c0,0-0.041,0-0.106,0v-0.106c0,0-0.04,0-0.106,0v-0.106    c0,0-0.039,0-0.104,0V31.46c0,0-0.04,0-0.106,0v-0.107c0,0-0.041,0-0.106,0v-0.106c0,0-0.04,0-0.106,0V31.14c0,0-0.039,0-0.104,0    v-0.106c0,0-0.04,0-0.107,0v-0.106c0,0-0.04,0-0.106,0V30.82c0,0-0.039,0-0.105,0v-0.105c0,0-0.039,0-0.105,0v-0.106    c0,0-0.039,0-0.106,0v-0.106c0,0-0.04,0-0.106,0v-0.107c0,0-0.039,0-0.105,0V30.29c0,0-0.039,0-0.105,0v-0.106    c0,0-0.039,0-0.106,0v-0.106c0,0-0.04,0-0.106,0V29.97c0,0-0.039,0-0.105,0v-0.106c0,0-0.039,0-0.105,0v-0.106    c0,0-0.039,0-0.107,0v-0.106c0,0-0.039,0-0.105,0v-0.106c0,0-0.04,0-0.105,0V29.44c0,0-0.039,0-0.105,0v-0.105c0,0-0.04,0-0.105,0    v-0.107c0,0-0.041,0-0.106,0V29.12c0,0-0.04,0-0.106,0v-0.106c0,0-0.039,0-0.105,0v-0.106c0,0-0.04,0-0.105,0v-0.106    c0,0-0.041,0-0.106,0v-0.106c0,0-0.04,0-0.106,0V28.59c0,0-0.039,0-0.105,0v-0.105c0,0-0.04,0-0.106,0v-0.107c0,0-0.04,0-0.106,0    v-0.106c0,0-0.039,0-0.105,0v-0.105c0,0-0.04,0-0.105,0v-0.106c0,0-0.041,0-0.106,0V27.95c0,0-0.04,0-0.106,0v-0.106    c0,0-0.039,0-0.104,0v-0.106c0,0-0.04,0-0.106,0v-0.106c0,0-0.039,0-0.105,0v-0.106c0,0-0.04,0-0.107,0v-0.107    c0,0-0.039,0-0.104,0v-0.105c0,0-0.04,0-0.106,0v-0.106c0,0-0.039,0-0.105,0V27.1c0,0-0.04,0-0.107,0v-0.106c0,0-0.039,0-0.105,0    v-0.106c0,0-0.039,0-0.105,0v-0.106c0,0-0.04,0-0.105,0v-0.107c0,0-0.041,0-0.107,0v-0.106c0,0-0.039,0-0.105,0v-0.106    c0,0-0.039,0-0.105,0v-0.106c0,0-0.04,0-0.105,0V26.25c0,0-0.041,0-0.107,0v-0.106c0,0-0.039,0-0.105,0v-0.106    c0,0-0.039,0-0.105,0v-0.105c0,0-0.04,0-0.106,0v-0.107c0,0-0.04,0-0.106,0V25.72c0,0-0.039,0-0.105,0v-0.106c0,0-0.039,0-0.105,0    v-0.106c0,0-0.039,0-0.106,0v-0.106c0,0-0.04,0-0.106,0v-0.107c0,0-0.039,0-0.105,0V25.19c0,0-0.039,0-0.105,0v-0.11    c0,0-0.039,0-0.106,0v-0.106c0,0-0.039,0-0.104,0v-0.106c0,0-0.041,0-0.107,0v-0.106c0,0-0.04,0-0.106,0v-0.106    c0,0-0.038,0-0.104,0V24.55c0,0-0.04,0-0.106,0v-0.106c0,0-0.04,0-0.106,0v-0.106c0,0-0.039,0-0.105,0v-0.106c0,0-0.04,0-0.105,0    v-0.106c0,0-0.041,0-0.106,0V24.02c0,0-0.04,0-0.106,0v-0.11c0,0-0.041,0-0.106,0v-0.106c0,0-0.039,0-0.104,0v-0.106    c0,0-0.041,0-0.106,0v-0.106c0,0-0.04,0-0.106,0v-0.107c0,0-0.039,0-0.105,0v-0.106c0,0-0.04,0-0.106,0v-0.106c0,0-0.04,0-0.106,0    v-0.106c0,0-0.039,0-0.105,0V23.06c0,0-0.04,0-0.105,0v-0.106c0,0-0.041,0-0.106,0v-0.106c0,0-0.04,0-0.106,0v-0.106    c0,0-0.039,0-0.105,0v-0.106c0,0-0.04,0-0.105,0V22.53c0,0-0.041,0-0.106,0v-0.106c0,0-0.04,0-0.106,0v-0.107c0,0-0.039,0-0.105,0    v-0.106c0,0-0.04,0-0.106,0v-0.107c0,0-0.038,0-0.104,0v-0.105c0,0-0.04,0-0.107,0V21.89c0,0-0.039,0-0.105,0v-0.106    c0,0-0.039,0-0.105,0v-0.106c0,0-0.04,0-0.105,0v-0.106c0,0-0.041,0-0.106,0v-0.107c0,0-0.04,0-0.106,0v-0.106    c0,0-0.039,0-0.106,0v-0.106c0,0-0.039,0-0.104,0v-0.106c0,0-0.041,0-0.106,0V21.04c0,0-0.04,0-0.106,0v-0.106    c0,0-0.039,0-0.105,0v-0.106c0,0-0.04,0-0.106,0v-0.106c0,0-0.04,0-0.106,0v-0.106c0,0-0.039,0-0.105,0V20.51c0,0-0.04,0-0.105,0    v-0.106c0,0-0.041,0-0.106,0v-0.106c0,0-0.04,0-0.106,0v-0.106c0,0-0.039,0-0.105,0v-0.106c0,0-0.04,0-0.105,0V19.98    c0,0-0.041,0-0.106,0v-0.106c0,0-0.04,0-0.106,0v-0.107c0,0-0.039,0-0.105,0v-0.106c0,0-0.04,0-0.106,0v-0.106c0,0-0.04,0-0.106,0    v-0.106c0,0-0.039,0-0.105,0v-0.106c0,0-0.04,0-0.105,0v-0.106c0,0-0.041,0-0.106,0v-0.106c0,0-0.04,0-0.106,0V19.02    c0,0-0.039,0-0.105,0v-0.106c0,0-0.04,0-0.105,0v-0.106c0,0-0.041,0-0.106,0v-0.106c0,0-0.039,0-0.104,0v-0.106    c0,0-0.041,0-0.106,0V18.49c0,0-0.04,0-0.106,0v-0.107c0,0-0.039,0-0.105,0v-0.105c0,0-0.04,0-0.106,0v-0.107c0,0-0.04,0-0.106,0    v-0.106c0,0-0.039,0-0.105,0v-0.107c0,0-0.04,0-0.105,0v-0.106c0,0-0.041,0-0.106,0v-0.106c0,0-0.04,0-0.106,0V17.64    c0,0-0.039,0-0.105,0v-0.107c0,0-0.04,0-0.105,0v-0.105c0,0-0.041,0-0.106,0v-0.107c0,0-0.04,0-0.106,0v-0.106    c0,0-0.039,0-0.105,0v-0.106c0,0-0.04,0-0.106,0V17c0,0-2.05,0-4,0c-4.072,0-7,2.435-7,7v4h-5v5h0.106v0.105h0.106v0.106h0.107    v0.106h0.106v0.105h0.106v0.105h0.107v0.105h0.106v0.106h0.106v0.106h0.107v0.105h0.106v0.105h0.106v0.106h0.107v0.106h0.106    v0.104h0.106v0.106h0.107v0.105h0.105v0.105h0.106V34.8h0.107v0.106h0.106v0.104h0.106v0.107h0.106v0.104h0.106v0.106h0.106v0.106    h0.106v0.104h0.106v0.106h0.106v0.106h0.107v0.104h0.106v0.107h0.106v0.105h0.106v0.105h0.106v0.106h0.106v0.104h0.106v0.107    h0.106V36.6h0.107v0.105h0.106v0.107h0.106v0.104h0.107v0.106h0.106v0.105h0.105v0.105h0.106v0.106h0.107v0.104H28.7v0.107h0.107    v0.105h0.106v0.105h0.106v0.106H29V47h0.106v0.105h0.106v0.106h0.106v0.106h0.106v0.105h0.106v0.105h0.107v0.105h0.106v0.106    h0.106v0.106h0.106v0.105h0.106v0.105h0.107v0.106h0.106v0.106h0.106v0.104h0.106v0.106h0.106v0.105h0.106V48.7h0.107v0.106h0.106    v0.106h0.106v0.104h0.107v0.107h0.106v0.105h0.106v0.105h0.107v0.105h0.106v0.105h0.106v0.107h0.106v0.105h0.106v0.105h0.107    v0.107h0.106v0.104h0.106v0.106h0.106v0.105h0.106v0.105h0.107V50.5h0.106v0.107h0.105v0.104h0.106v0.106h0.106v0.105h0.105v0.105    h0.105v0.106h0.105v0.105h0.105v0.106h0.106v0.105h0.106v0.107h0.106v0.104h0.106v0.106h0.104v0.105h0.106v0.105h0.105v0.105H34.2    v0.105h0.106V52.3h0.106v0.106h0.104v0.105h0.106v0.106h0.106v0.104h0.105v0.107h0.105v0.105h0.106v0.105h0.106v0.105h0.105v0.106    h0.106v0.106h0.106v0.105h0.105v0.105h0.105v0.106h0.105v0.104h0.107v0.106h0.105v0.106h0.105V54.1h0.106v0.106h0.104v0.106h0.107    v0.104h0.106v0.106h0.104v0.105h0.106v0.105h0.106v0.106h0.105v0.106h0.107v0.105h0.104v0.105H37.3v0.105h0.106v0.106h0.105v0.106    h0.106v0.105h0.106v0.105h0.105v0.106h0.105V55.9h0.106v0.105h0.106v0.105h0.105v0.105h0.105v0.105h0.106v0.106h0.104v0.106h0.107    v0.105h0.106v0.106h0.106v0.104h0.104v0.106h0.106V57.1h0.106v0.106h0.106v0.106h0.104v0.104h0.106v0.106h0.105v0.105h0.105v0.107    h0.106v0.104h0.106v0.106h0.107v0.105h0.104v0.106h0.106v0.104h0.105v0.107h0.105v0.105h0.106v0.105h0.106v0.105h0.105v0.106    h0.105V58.9h0.106v0.105h0.106v0.105h0.105v0.105h0.106v0.107h0.106v0.105h0.105v0.105h0.105v0.105h0.106v0.106h0.106v0.104h0.104    v0.106h0.106v0.106h0.106v0.105h0.104v0.105h0.107v0.105h0.105v0.107H42.6v0.105h0.104V60.7h0.106v0.104h0.105v0.106h0.105v0.106    h0.106v0.105h0.106v0.105h0.105v0.105h0.107v0.107h0.104v0.104h0.104v0.106h0.107v0.105h0.106v0.105h0.106v0.106h0.105v0.106    h0.105v0.105h0.106v0.105H44.4v0.107h0.104v0.104h0.106v0.106h0.106v0.105h0.106v0.105h0.104v0.106h0.107v0.104h0.104v0.107h0.106    v0.105h0.106v0.105h0.106v0.106h0.14v0.106h0.107v0.105h0.105v0.105h0.105v0.105h0.105v0.105h0.106v0.106h0.106v0.106h0.105v0.105    h0.106v0.105h0.106v0.106h0.105v0.105h0.105v0.106h0.106v0.105h0.106v0.105h0.105v0.106h0.105v0.106h0.106v0.104h0.106v0.106    h0.105v0.105h0.105v0.107h0.106v0.104h0.105v0.106h0.106v0.105h0.105v0.105h0.105V66.1h0.107v0.104h0.105v0.106h0.105v0.105h0.107    v0.105h0.104v0.106h0.106v0.106h0.105v0.105h0.106v0.105h0.106v0.105h0.105v0.106h0.105v0.106h0.106v0.105h0.106v0.105h0.105    v0.106h0.105v0.104h0.106v0.107h0.106v0.105h0.104v0.105h0.106v0.105h0.107v0.106h0.105v0.106h0.105v0.105h0.106v0.105h0.104    v0.105h0.107v0.106h0.105V68.9h0.105v0.105h0.107v0.105h0.105v0.106h0.105v0.106h0.106v0.105h0.105v0.105h0.106v0.105h0.105v0.106    h0.105v0.106h0.106v0.104h0.106v0.106h0.105v0.105h0.105v0.107h0.106v0.104h0.106v0.106h0.105v0.105h0.105V70.7h0.107v0.104h0.104    v0.106h0.106v0.106h0.106v0.105h0.106v0.105h0.105v0.106h0.105v0.106h0.105v0.105h0.105v0.106h0.106v0.104h0.106v0.106h0.106    v0.106h0.106v0.105h0.105v0.105h0.105v0.106h0.105v0.104h0.106V72.5h0.106v0.105h0.105v0.105h0.105v0.105h0.106v0.106h0.106v0.106    h0.105v0.105h0.105v0.105h0.107v0.105h0.105v0.106h0.105v0.106h0.106v0.105h0.106v0.105h0.105v0.106h0.105v0.106h0.106v0.104    h0.106v0.106h0.105v0.105h0.105v0.106h0.105v0.106h0.106v0.104h0.106v0.106h0.106v0.105h0.106v0.105h0.104v0.106h0.106v0.106    h0.105v0.105h0.105v0.106h0.106v0.104h0.106v0.106h0.105v0.106h0.106v0.105h0.106v0.105h0.105v0.106h0.105V76.1h0.106v0.105h0.106    v0.105h0.105v0.105h0.105v0.106h0.106v0.106h0.106v0.105h0.105v0.105h0.105v0.106h0.107v0.104h0.105v0.106h0.105v0.106h0.105    v0.105h0.105v0.105h0.107v0.106h0.105v0.104H59.8v0.107h0.104v0.105h0.106v0.105h0.106v0.106h0.105v0.106h0.106v0.105h0.106v0.105    h0.105v0.105h0.105v0.105h0.106v0.106h0.106v0.106h0.105V79h6V65h4l1-5h-0.127l0.021-0.105H71.73l0.021-0.106h-0.128l0.021-0.104    h-0.129l0.021-0.106h-0.129l0.021-0.106h-0.128l0.021-0.105h-0.127l0.021-0.106h-0.128l0.021-0.106h-0.06l0.021-0.105h-0.127    l0.021-0.105h-0.128l0.021-0.105H70.73l0.021-0.105h-0.128l0.021-0.106h-0.129l0.021-0.106h-0.128l0.021-0.105h-0.127l0.021-0.105    h-0.128l0.021-0.106h-0.128l0.021-0.106H69.98l0.021-0.104H69.88l0.021-0.106h-0.127l0.021-0.105h-0.128l0.021-0.106h-0.129    l0.021-0.106h-0.128l0.021-0.105h-0.127l0.021-0.105h-0.128l0.021-0.106h-0.128l0.021-0.104h-0.129l0.021-0.106h-0.128    l0.021-0.106h-0.127l0.021-0.105h-0.128l0.021-0.106h-0.129l0.021-0.104h-0.128l0.021-0.107h-0.127l0.021-0.105h-0.129    l0.021-0.105h-0.127l0.021-0.105h-0.127l0.021-0.106h-0.128l0.021-0.106h-0.129l0.021-0.105h-0.128l0.021-0.105h-0.127    l0.021-0.105h-0.128l0.021-0.105H67.42l0.021-0.106h-0.129l0.021-0.106h-0.113l0.021-0.105h-0.104    C67.407,54.305,68.253,54,70.029,54z" enable-background="new    " fill="url(#SVGID_3_)" opacity="0.5"/></g></g><path d="M39,33l1-5l-5,0.001V24c0-1.544,0.784-2,3-2h2v-5c0,0-2.05,0-4,0c-4.072,0-7,2.435-7,7v4h-5v5h5  v14h6V33H39z" fill="#FFFFFF" id="f_1_"/></svg>