<?xml version="1.0" ?><!DOCTYPE svg  PUBLIC '-//W3C//DTD SVG 1.1//EN'  'http://www.w3.org/Graphics/SVG/1.1/DTD/svg11.dtd'><svg enable-background="new 0 0 134.5 133.609" height="133.609px" id="Layer_1" version="1.1" viewBox="0 0 134.5 133.609" width="134.5px" xml:space="preserve" xmlns="http://www.w3.org/2000/svg" xmlns:xlink="http://www.w3.org/1999/xlink"><g><g><g><g><circle cx="67.25" cy="66.804" fill="#CC3732" r="63.333"/></g></g></g><g><path d="M112.034,22.021c24.732,24.732,24.733,64.832-0.001,89.566c-24.733,24.732-64.834,24.732-89.566,0    L112.034,22.021z" fill="#BC2C2B"/><g><path d="M130.053,74.876L93.826,38.65l-7.499,7.499l-8.001-8L68.167,40l-3.507,1.482l-11.326-2.148l-10.167,6.333     l-1.95,19.26L57.05,80.759l-9.716,2.074L38,87.333l-2.45,14.926l27.743,27.744c1.311,0.08,2.627,0.135,3.957,0.135     C99.49,130.138,126.085,106.041,130.053,74.876z" fill="#A62828"/></g></g><g><path d="M66.901,41.424c0.586,0.362,1.239,0.889,1.967,1.585c0.699,0.724,1.382,1.617,2.053,2.67    c0.642,0.998,1.211,2.171,1.708,3.532c0.407,1.356,0.611,2.943,0.611,4.753c-0.053,3.32-0.787,5.974-2.2,7.969    c-0.688,0.965-1.422,1.855-2.196,2.671c-0.857,0.812-1.769,1.644-2.734,2.489c-0.556,0.573-1.064,1.221-1.535,1.947    c-0.552,0.754-0.829,1.628-0.829,2.623c0,0.973,0.283,1.77,0.852,2.402c0.479,0.604,0.95,1.133,1.404,1.586l3.149,2.58    c1.955,1.604,3.671,3.36,5.146,5.293c1.389,1.965,2.111,4.529,2.173,7.696c0,4.497-1.988,8.479-5.96,11.954    c-4.114,3.594-10.059,5.447-17.824,5.566c-6.501-0.059-11.354-1.445-14.561-4.152c-3.232-2.533-4.853-5.559-4.853-9.084    c0-1.715,0.524-3.633,1.582-5.741c1.018-2.105,2.867-3.96,5.546-5.557c3.003-1.714,6.161-2.86,9.471-3.435    c3.276-0.479,5.995-0.753,8.162-0.811c-0.67-0.882-1.267-1.822-1.79-2.822c-0.611-0.972-0.914-2.143-0.914-3.504    c0-0.819,0.115-1.506,0.348-2.049c0.203-0.58,0.394-1.105,0.566-1.594c-1.054,0.119-2.049,0.182-2.979,0.182    c-4.942-0.063-8.708-1.617-11.299-4.663c-2.715-2.841-4.071-6.145-4.071-9.915c0-4.559,1.92-8.691,5.765-12.404    c2.638-2.172,5.379-3.586,8.222-4.255c2.816-0.574,5.455-0.859,7.915-0.859h18.561l-5.731,3.346H66.901z M70.484,94.847    c0-2.357-0.768-4.406-2.301-6.156c-1.628-1.659-4.168-3.695-7.626-6.113c-0.594-0.063-1.288-0.091-2.084-0.091    c-0.473-0.058-1.685,0-3.634,0.181c-1.921,0.272-3.888,0.71-5.897,1.314c-0.474,0.18-1.136,0.453-1.993,0.814    c-0.856,0.393-1.728,0.953-2.616,1.676c-0.857,0.754-1.582,1.689-2.17,2.809c-0.683,1.178-1.018,2.596-1.018,4.254    c0,3.262,1.473,5.949,4.427,8.063c2.81,2.111,6.649,3.197,11.527,3.26c4.373-0.063,7.713-1.027,10.015-2.898    C69.361,100.115,70.484,97.748,70.484,94.847z M57.547,67.643c2.443-0.09,4.479-0.97,6.106-2.634    c0.787-1.179,1.291-2.388,1.515-3.628c0.135-1.241,0.204-2.282,0.204-3.131c0-3.657-0.937-7.349-2.808-11.065    c-0.879-1.783-2.035-3.237-3.468-4.355c-1.463-1.054-3.145-1.616-5.045-1.676c-2.516,0.061-4.604,1.074-6.273,3.04    c-1.406,2.056-2.079,4.354-2.016,6.895c0,3.355,0.98,6.845,2.944,10.477c0.952,1.692,2.177,3.128,3.685,4.308    C53.894,67.054,55.611,67.643,57.547,67.643z" fill="#FFFFFF"/><polygon fill="#FFFFFF" points="103.499,48.215 93.762,48.215 93.762,38.475 89.043,38.475 89.043,48.215 79.306,48.215     79.306,52.934 89.043,52.934 89.043,62.67 93.762,62.67 93.762,52.934 103.499,52.934   "/></g></g></svg>