<?xml version="1.0" ?><!DOCTYPE svg  PUBLIC '-//W3C//DTD SVG 1.1//EN'  'http://www.w3.org/Graphics/SVG/1.1/DTD/svg11.dtd'><svg enable-background="new 0 0 64 64" height="64px" id="Linked.in" version="1.1" viewBox="0 0 64 64" width="64px" xml:space="preserve" xmlns="http://www.w3.org/2000/svg" xmlns:xlink="http://www.w3.org/1999/xlink"><linearGradient gradientTransform="matrix(1 0 0 -1 -1370 -1753)" gradientUnits="userSpaceOnUse" id="Circle_Shadow_1_" x1="1434.0303" x2="1402.0295" y1="-1816.9995" y2="-1784.9989"><stop offset="0.3163" style="stop-color:#FFFFFF;stop-opacity:0"/><stop offset="0.3508" style="stop-color:#E9E9E9;stop-opacity:0.0504"/><stop offset="0.4543" style="stop-color:#ACACAC;stop-opacity:0.2018"/><stop offset="0.5572" style="stop-color:#787878;stop-opacity:0.3523"/><stop offset="0.6569" style="stop-color:#4D4D4D;stop-opacity:0.4981"/><stop offset="0.7528" style="stop-color:#2B2B2B;stop-opacity:0.6385"/><stop offset="0.8441" style="stop-color:#131313;stop-opacity:0.7719"/><stop offset="0.9286" style="stop-color:#050505;stop-opacity:0.8956"/><stop offset="1" style="stop-color:#000000"/></linearGradient><polygon enable-background="new    " fill="url(#Circle_Shadow_1_)" id="Circle_Shadow" opacity="0.2" points="64.029,64   64.029,30.059 49,15.029 15.059,48.971 30.088,64 "/><circle cx="32" cy="32" fill="#0E76A8" id="Circle" r="24"/><g id="in_Shadow"><g><defs><circle cx="32.029" cy="32" id="SVGID_1_" r="24"/></defs><clipPath id="SVGID_2_"><use overflow="visible" xlink:href="#SVGID_1_"/></clipPath><linearGradient gradientTransform="matrix(1 0 0 -1 -274 -299)" gradientUnits="userSpaceOnUse" id="SVGID_3_" x1="348.459" x2="291.3193" y1="-378.814" y2="-321.6744"><stop offset="0.5255" style="stop-color:#000000;stop-opacity:0"/><stop offset="0.5792" style="stop-color:#000000;stop-opacity:0.1133"/><stop offset="1" style="stop-color:#000000"/></linearGradient><path clip-path="url(#SVGID_2_)" d="M75.518,60.893    c-0.037-0.035-0.07-0.074-0.109-0.106c-0.037-0.035-0.07-0.074-0.109-0.108c-0.035-0.033-0.068-0.07-0.105-0.104    c-0.037-0.035-0.07-0.074-0.109-0.108c-0.036-0.034-0.066-0.071-0.105-0.104c-0.037-0.034-0.069-0.073-0.108-0.106    c-0.036-0.034-0.068-0.071-0.106-0.104c-0.037-0.035-0.07-0.074-0.107-0.107c-0.038-0.036-0.072-0.075-0.112-0.109    c-0.035-0.033-0.065-0.068-0.103-0.102c-0.039-0.035-0.071-0.075-0.111-0.109c-0.036-0.033-0.066-0.07-0.104-0.104    c-0.039-0.035-0.072-0.074-0.11-0.107c-0.036-0.035-0.069-0.072-0.107-0.105c-0.036-0.034-0.067-0.072-0.106-0.105    c-0.037-0.035-0.069-0.074-0.108-0.107c-0.037-0.034-0.069-0.072-0.108-0.106c-0.037-0.035-0.07-0.073-0.108-0.106    c-0.036-0.032-0.067-0.07-0.104-0.104c-0.037-0.035-0.07-0.074-0.109-0.107c-0.036-0.035-0.068-0.071-0.106-0.104    c-0.037-0.035-0.069-0.073-0.108-0.106c-0.037-0.035-0.069-0.074-0.107-0.106c-0.037-0.034-0.068-0.072-0.105-0.104    c-0.039-0.037-0.074-0.076-0.115-0.111c-0.033-0.031-0.063-0.067-0.098-0.1c-0.039-0.037-0.076-0.076-0.117-0.113    c-0.035-0.032-0.064-0.068-0.103-0.101c-0.037-0.036-0.071-0.075-0.11-0.108c-0.035-0.035-0.067-0.071-0.105-0.104    c-0.037-0.035-0.07-0.073-0.107-0.106c-0.039-0.035-0.07-0.074-0.109-0.107c-0.037-0.034-0.069-0.072-0.107-0.105    c-0.037-0.035-0.07-0.072-0.109-0.106c-0.035-0.033-0.066-0.07-0.104-0.103c-0.037-0.037-0.07-0.076-0.109-0.109    c-0.037-0.034-0.068-0.071-0.106-0.104c-0.037-0.034-0.07-0.073-0.108-0.106c-0.037-0.035-0.07-0.074-0.109-0.107    c-0.037-0.033-0.068-0.072-0.105-0.104c-0.038-0.035-0.07-0.074-0.109-0.108c-0.037-0.034-0.068-0.071-0.105-0.104    c-0.037-0.035-0.069-0.072-0.107-0.106c-0.037-0.035-0.07-0.073-0.109-0.106c-0.036-0.035-0.069-0.072-0.108-0.106    c-0.036-0.034-0.067-0.071-0.104-0.104s-0.069-0.072-0.108-0.105c-0.037-0.035-0.069-0.074-0.108-0.107    c-0.037-0.033-0.068-0.07-0.105-0.104c-0.038-0.035-0.071-0.074-0.11-0.108c-0.036-0.034-0.069-0.073-0.108-0.106    c-0.035-0.032-0.066-0.069-0.104-0.104c-0.038-0.035-0.07-0.074-0.109-0.107c-0.037-0.035-0.07-0.073-0.108-0.106    c-0.036-0.034-0.068-0.072-0.106-0.104c-0.037-0.035-0.07-0.074-0.109-0.106c-0.036-0.035-0.069-0.074-0.107-0.106    c-0.036-0.035-0.066-0.072-0.105-0.104c-0.037-0.036-0.07-0.075-0.109-0.109c-0.037-0.034-0.07-0.073-0.109-0.106    c-0.035-0.033-0.066-0.07-0.104-0.104c-0.037-0.035-0.071-0.074-0.11-0.109c-0.036-0.033-0.067-0.07-0.106-0.104    c-0.037-0.035-0.07-0.074-0.109-0.107c-0.036-0.033-0.066-0.07-0.104-0.104c-0.037-0.036-0.071-0.075-0.11-0.109    c-0.036-0.033-0.068-0.072-0.106-0.104c-0.037-0.035-0.07-0.074-0.109-0.107c-0.036-0.035-0.069-0.074-0.108-0.106    c-0.036-0.034-0.067-0.071-0.104-0.104c-0.037-0.035-0.07-0.072-0.109-0.107c-0.036-0.033-0.066-0.07-0.105-0.104    c-0.037-0.035-0.07-0.074-0.109-0.109c-0.036-0.033-0.068-0.07-0.106-0.104c-0.036-0.035-0.069-0.072-0.108-0.107    c-0.037-0.035-0.071-0.073-0.11-0.108c-0.035-0.033-0.065-0.069-0.104-0.103c-0.037-0.035-0.07-0.074-0.11-0.108    c-0.036-0.033-0.067-0.07-0.104-0.103c-0.037-0.035-0.07-0.074-0.109-0.108c-0.035-0.034-0.068-0.072-0.106-0.105    c-0.038-0.036-0.071-0.075-0.11-0.108c-0.037-0.034-0.068-0.072-0.106-0.105c-0.036-0.033-0.067-0.07-0.106-0.104    c-0.037-0.034-0.068-0.073-0.107-0.106c-0.037-0.035-0.068-0.071-0.106-0.104c-0.036-0.035-0.069-0.073-0.108-0.107    c-0.037-0.035-0.071-0.074-0.111-0.107c-0.034-0.033-0.064-0.069-0.102-0.103c-0.039-0.036-0.073-0.076-0.114-0.11    c-0.035-0.035-0.067-0.072-0.104-0.104c-0.037-0.035-0.068-0.073-0.107-0.106c-0.036-0.033-0.068-0.072-0.106-0.104    c-0.038-0.036-0.071-0.075-0.11-0.109c-0.037-0.034-0.068-0.071-0.106-0.104c-0.036-0.033-0.067-0.07-0.104-0.104    c-0.039-0.036-0.072-0.074-0.113-0.109c-0.034-0.033-0.066-0.07-0.104-0.104c-0.037-0.035-0.07-0.074-0.109-0.107    c-0.037-0.035-0.069-0.074-0.107-0.106c-0.037-0.034-0.068-0.072-0.107-0.104c-0.035-0.035-0.068-0.072-0.106-0.105    c-0.037-0.035-0.07-0.074-0.108-0.107c-0.037-0.035-0.07-0.074-0.109-0.107c-0.035-0.032-0.065-0.069-0.103-0.102    c-0.039-0.037-0.073-0.076-0.114-0.111c-0.035-0.034-0.067-0.071-0.105-0.104c-0.037-0.034-0.069-0.071-0.107-0.104    c-0.035-0.034-0.068-0.072-0.106-0.105c-0.036-0.035-0.069-0.072-0.107-0.107c-0.036-0.035-0.069-0.072-0.108-0.106    c-0.037-0.034-0.069-0.072-0.107-0.104c-0.038-0.035-0.07-0.074-0.111-0.108c-0.035-0.034-0.066-0.071-0.104-0.104    s-0.069-0.072-0.107-0.105c-0.037-0.034-0.07-0.072-0.107-0.105c-0.036-0.035-0.069-0.072-0.107-0.107    c-0.037-0.033-0.068-0.071-0.107-0.105c-0.039-0.036-0.072-0.074-0.112-0.109c-0.035-0.033-0.065-0.068-0.104-0.102    c-0.037-0.036-0.07-0.074-0.108-0.107c-0.036-0.035-0.068-0.071-0.105-0.104c-0.038-0.035-0.071-0.074-0.11-0.106    c-0.035-0.035-0.066-0.072-0.104-0.104c-0.038-0.037-0.071-0.076-0.112-0.111c-0.035-0.032-0.066-0.069-0.104-0.103    c-0.036-0.035-0.069-0.073-0.108-0.107c-0.037-0.033-0.07-0.072-0.107-0.105c-0.036-0.034-0.068-0.071-0.106-0.104    c-0.037-0.034-0.069-0.073-0.108-0.106c-0.037-0.035-0.068-0.073-0.106-0.106c-0.038-0.035-0.071-0.073-0.11-0.108    c-0.035-0.033-0.065-0.068-0.104-0.102c-0.039-0.037-0.073-0.076-0.113-0.111c-0.037-0.033-0.068-0.07-0.105-0.104    c-0.037-0.034-0.068-0.071-0.105-0.104c-0.038-0.035-0.07-0.074-0.109-0.107c-0.037-0.035-0.068-0.073-0.106-0.106    c-0.038-0.034-0.071-0.073-0.11-0.108c-0.035-0.032-0.068-0.069-0.105-0.103c-0.036-0.036-0.07-0.075-0.109-0.108    c-0.036-0.033-0.066-0.07-0.104-0.104c-0.039-0.036-0.072-0.075-0.112-0.108c-0.036-0.035-0.068-0.072-0.106-0.104    c-0.035-0.034-0.066-0.072-0.104-0.104c-0.037-0.035-0.071-0.074-0.11-0.108c-0.037-0.034-0.068-0.072-0.107-0.104    c-0.037-0.035-0.069-0.074-0.108-0.107c-0.036-0.034-0.067-0.071-0.104-0.104c-0.039-0.034-0.072-0.073-0.111-0.108    c-0.036-0.033-0.067-0.07-0.105-0.104c-0.035-0.035-0.068-0.072-0.105-0.105c-0.037-0.035-0.071-0.074-0.11-0.108    c-0.037-0.035-0.069-0.073-0.108-0.106c-0.037-0.033-0.068-0.071-0.106-0.104c-0.036-0.034-0.067-0.071-0.104-0.104    c-0.039-0.035-0.072-0.074-0.111-0.107c-0.036-0.035-0.068-0.072-0.106-0.105c-0.036-0.035-0.069-0.072-0.108-0.105    c-0.037-0.036-0.07-0.074-0.109-0.108c-0.035-0.032-0.064-0.069-0.102-0.101c-0.039-0.036-0.072-0.076-0.112-0.111    c-0.037-0.033-0.07-0.072-0.109-0.105c-0.036-0.034-0.067-0.071-0.104-0.104c-0.037-0.035-0.069-0.073-0.108-0.106    c-0.037-0.035-0.069-0.072-0.108-0.106c-0.037-0.034-0.067-0.071-0.105-0.104c-0.037-0.035-0.068-0.072-0.107-0.105    c-0.039-0.036-0.072-0.076-0.113-0.111c-0.034-0.031-0.065-0.068-0.103-0.1c-0.036-0.036-0.071-0.075-0.11-0.109    c-0.037-0.035-0.069-0.072-0.108-0.107c-0.035-0.032-0.065-0.069-0.104-0.103c-0.037-0.034-0.071-0.075-0.11-0.108    c-0.036-0.034-0.068-0.072-0.106-0.104c-0.037-0.036-0.07-0.075-0.109-0.108c-0.036-0.033-0.066-0.069-0.104-0.103    c-0.038-0.036-0.071-0.076-0.112-0.11c-0.037-0.035-0.069-0.072-0.107-0.105c-0.036-0.034-0.067-0.071-0.105-0.104    c-0.037-0.035-0.068-0.074-0.107-0.107c-0.038-0.035-0.071-0.074-0.11-0.108c-0.036-0.034-0.067-0.071-0.106-0.104    c-0.035-0.033-0.066-0.07-0.104-0.104c-0.038-0.035-0.071-0.074-0.11-0.109c-0.037-0.032-0.067-0.069-0.104-0.103    c-0.038-0.036-0.071-0.075-0.111-0.11c-0.036-0.033-0.067-0.07-0.104-0.104c-0.037-0.035-0.07-0.074-0.109-0.107    c-0.037-0.035-0.068-0.074-0.107-0.106c-0.037-0.034-0.069-0.072-0.107-0.104c-0.037-0.035-0.07-0.074-0.109-0.107    c-0.035-0.033-0.066-0.071-0.104-0.104c-0.037-0.034-0.07-0.073-0.109-0.106c-0.036-0.034-0.067-0.072-0.106-0.105    c-0.036-0.033-0.069-0.072-0.107-0.105c-0.037-0.035-0.07-0.073-0.109-0.107c-0.037-0.035-0.07-0.072-0.107-0.105    c-0.037-0.035-0.07-0.073-0.108-0.106c-0.036-0.033-0.067-0.069-0.104-0.104s-0.07-0.074-0.11-0.107    c-0.036-0.034-0.067-0.072-0.106-0.105c-0.037-0.033-0.068-0.072-0.106-0.104c-0.037-0.035-0.069-0.074-0.108-0.108    c-0.037-0.033-0.068-0.07-0.106-0.104c-0.037-0.035-0.069-0.073-0.108-0.107c-0.037-0.035-0.07-0.072-0.109-0.107    c-0.035-0.033-0.067-0.07-0.105-0.104c-0.037-0.035-0.068-0.072-0.107-0.105c-0.037-0.035-0.071-0.074-0.11-0.108    c-0.036-0.034-0.066-0.069-0.104-0.103c-0.037-0.037-0.072-0.076-0.111-0.109c-0.036-0.035-0.068-0.072-0.106-0.105    c-0.036-0.033-0.067-0.07-0.104-0.104c-0.039-0.037-0.072-0.076-0.112-0.111c-0.036-0.033-0.068-0.07-0.104-0.104    c-0.037-0.034-0.068-0.072-0.106-0.104c-0.037-0.036-0.07-0.073-0.109-0.108c-0.036-0.033-0.069-0.071-0.106-0.104    c-0.037-0.036-0.071-0.075-0.111-0.108c-0.035-0.033-0.064-0.069-0.104-0.103c-0.037-0.036-0.072-0.076-0.112-0.11    c-0.035-0.033-0.066-0.07-0.104-0.104c-0.037-0.035-0.07-0.075-0.111-0.109c-0.036-0.035-0.069-0.072-0.108-0.105    c-0.035-0.033-0.065-0.069-0.103-0.102c-0.039-0.037-0.073-0.076-0.114-0.113c-0.034-0.031-0.063-0.067-0.101-0.1    c-0.039-0.037-0.074-0.078-0.115-0.113c-0.035-0.033-0.066-0.068-0.104-0.102c-0.038-0.035-0.07-0.074-0.109-0.107    c-0.037-0.035-0.067-0.071-0.105-0.104c-0.037-0.036-0.07-0.075-0.109-0.108c-0.039-0.035-0.072-0.074-0.111-0.108    c-0.035-0.033-0.065-0.069-0.103-0.103c-0.038-0.035-0.071-0.074-0.11-0.107c-0.037-0.034-0.067-0.071-0.105-0.104    c-0.037-0.034-0.07-0.075-0.111-0.108c-0.035-0.034-0.067-0.071-0.104-0.104c-0.037-0.034-0.07-0.073-0.109-0.106    c-0.036-0.035-0.067-0.072-0.104-0.105c-0.038-0.035-0.071-0.074-0.11-0.107c-0.037-0.035-0.071-0.074-0.11-0.108    c-0.035-0.033-0.067-0.07-0.104-0.103c-0.036-0.035-0.067-0.074-0.106-0.106c-0.037-0.034-0.068-0.071-0.105-0.104    c-0.038-0.035-0.072-0.074-0.112-0.109c-0.036-0.034-0.069-0.072-0.108-0.105c-0.035-0.033-0.065-0.07-0.104-0.104    c-0.038-0.036-0.072-0.076-0.113-0.111c-0.035-0.032-0.064-0.068-0.102-0.1c-0.039-0.037-0.073-0.077-0.114-0.112    c-0.034-0.033-0.067-0.07-0.104-0.103c-0.036-0.037-0.069-0.074-0.108-0.108c-0.037-0.034-0.069-0.072-0.106-0.104    c-0.037-0.035-0.07-0.074-0.109-0.107c-0.035-0.034-0.067-0.071-0.105-0.104c-0.037-0.035-0.068-0.074-0.107-0.107    c-0.037-0.035-0.07-0.074-0.109-0.108c-0.037-0.034-0.07-0.071-0.107-0.106c-0.037-0.033-0.07-0.071-0.108-0.105    c-0.036-0.033-0.067-0.07-0.104-0.104c-0.037-0.035-0.069-0.073-0.108-0.106c-0.037-0.035-0.07-0.074-0.109-0.106    c-0.036-0.035-0.067-0.072-0.106-0.105c-0.036-0.035-0.069-0.073-0.107-0.107c-0.037-0.033-0.068-0.072-0.107-0.104    c-0.037-0.034-0.067-0.072-0.106-0.105c-0.037-0.036-0.071-0.075-0.11-0.109c-0.037-0.035-0.068-0.072-0.106-0.105    c-0.037-0.035-0.069-0.072-0.107-0.105c-0.036-0.035-0.069-0.074-0.108-0.108c-0.037-0.034-0.068-0.072-0.106-0.105    c-0.037-0.034-0.067-0.072-0.106-0.105c-0.037-0.036-0.07-0.074-0.109-0.108c-0.037-0.035-0.069-0.073-0.107-0.106    c-0.037-0.035-0.068-0.073-0.107-0.106c-0.037-0.035-0.07-0.074-0.109-0.108c-0.035-0.033-0.066-0.07-0.104-0.102    c-0.037-0.036-0.07-0.075-0.11-0.109c-0.037-0.035-0.07-0.073-0.108-0.107c-0.037-0.035-0.07-0.073-0.107-0.106    c-0.037-0.035-0.069-0.073-0.107-0.106c-0.037-0.034-0.068-0.072-0.105-0.105c-0.039-0.035-0.071-0.074-0.11-0.108    c-0.036-0.034-0.067-0.072-0.106-0.104c-0.037-0.036-0.07-0.075-0.109-0.109c-0.036-0.034-0.068-0.072-0.106-0.104    c-0.034-0.033-0.065-0.07-0.104-0.103c-0.038-0.037-0.072-0.076-0.113-0.111c-0.036-0.035-0.069-0.072-0.106-0.105    c-0.037-0.035-0.069-0.073-0.107-0.106c-0.037-0.035-0.07-0.073-0.107-0.106c-0.037-0.034-0.068-0.072-0.105-0.104    c-0.038-0.036-0.072-0.075-0.111-0.109c-0.035-0.035-0.068-0.072-0.107-0.105c-0.035-0.035-0.068-0.072-0.106-0.105    c-0.037-0.035-0.069-0.073-0.108-0.106c-0.035-0.035-0.067-0.073-0.105-0.106c-0.037-0.035-0.07-0.073-0.107-0.107    c-0.906-0.853-2.289-1.332-4.408-1.332c-1.688,0-3.057,0.518-4.013,1.249V28.91h-0.106v-0.106h-0.108v-0.106H34.38v-0.106h-0.106    v-0.106h-0.108V28.38h-0.106v-0.106H33.95v-0.105h-0.107v-0.106h-0.108v-0.106h-0.107v-0.106H33.52v-0.106h-1.226    c-0.024-0.025-0.052-0.046-0.078-0.07c-0.034-0.036-0.07-0.07-0.106-0.105c-0.036-0.037-0.072-0.072-0.109-0.107    c-0.035-0.037-0.071-0.071-0.108-0.106c-0.035-0.037-0.07-0.071-0.107-0.105c-0.036-0.037-0.072-0.072-0.109-0.107    c-0.035-0.036-0.071-0.071-0.107-0.105c-0.035-0.037-0.071-0.072-0.108-0.107c-0.035-0.037-0.071-0.071-0.108-0.106    c-0.035-0.037-0.071-0.071-0.107-0.106c-0.035-0.037-0.071-0.071-0.108-0.106c-0.036-0.037-0.072-0.072-0.109-0.106    c-0.035-0.037-0.071-0.071-0.107-0.106c-0.035-0.037-0.071-0.071-0.108-0.106c-0.035-0.037-0.071-0.071-0.107-0.106    c-0.035-0.037-0.071-0.072-0.108-0.106c-0.035-0.037-0.071-0.072-0.108-0.107c-0.035-0.037-0.071-0.071-0.108-0.106    c-0.035-0.036-0.07-0.07-0.106-0.105c-0.036-0.038-0.073-0.073-0.111-0.109c-0.034-0.036-0.07-0.07-0.106-0.104    c-0.035-0.037-0.071-0.072-0.108-0.107c-0.036-0.037-0.072-0.072-0.109-0.107c-0.034-0.036-0.069-0.069-0.105-0.104    c-0.036-0.037-0.072-0.072-0.109-0.107c-0.036-0.037-0.072-0.072-0.109-0.107c-0.035-0.037-0.071-0.071-0.108-0.106    c-0.035-0.037-0.071-0.071-0.107-0.106c-0.035-0.037-0.071-0.071-0.108-0.106c-0.035-0.037-0.071-0.071-0.108-0.106    c-0.035-0.037-0.071-0.072-0.108-0.106c-0.035-0.037-0.071-0.071-0.107-0.105c-0.035-0.037-0.071-0.072-0.108-0.107    c-0.036-0.038-0.072-0.073-0.109-0.108c-0.035-0.036-0.07-0.07-0.106-0.105c-0.035-0.037-0.072-0.072-0.108-0.106    c-0.035-0.037-0.071-0.071-0.107-0.106c-0.035-0.037-0.071-0.071-0.108-0.106c-0.035-0.037-0.071-0.072-0.108-0.107    c-0.035-0.037-0.071-0.072-0.109-0.107c-0.035-0.037-0.07-0.071-0.107-0.105c-0.035-0.037-0.071-0.072-0.108-0.107    c-0.035-0.037-0.071-0.071-0.107-0.106c-0.035-0.037-0.071-0.071-0.108-0.106c-0.035-0.037-0.071-0.071-0.108-0.106    c-0.035-0.037-0.071-0.071-0.108-0.106c-0.035-0.036-0.07-0.07-0.106-0.105c-0.036-0.037-0.072-0.073-0.11-0.108    c-0.036-0.037-0.072-0.072-0.109-0.107c-0.034-0.036-0.069-0.07-0.105-0.104c-0.035-0.037-0.071-0.072-0.108-0.107    c-0.035-0.037-0.072-0.072-0.109-0.107c-0.035-0.036-0.071-0.071-0.107-0.105c-0.035-0.037-0.071-0.072-0.108-0.106    c-0.035-0.037-0.071-0.071-0.107-0.106c-0.036-0.037-0.072-0.072-0.109-0.107c-0.035-0.036-0.07-0.07-0.106-0.105    c-0.035-0.037-0.071-0.071-0.108-0.106c-0.036-0.037-0.072-0.072-0.11-0.108c-0.035-0.036-0.07-0.07-0.106-0.104    c-0.036-0.037-0.072-0.072-0.109-0.107c-0.035-0.036-0.07-0.071-0.107-0.105c-0.036-0.037-0.072-0.072-0.109-0.107    c-0.035-0.037-0.071-0.071-0.107-0.104c-0.035-0.036-0.071-0.071-0.107-0.105c-0.035-0.037-0.072-0.072-0.109-0.107    c-0.035-0.037-0.071-0.071-0.108-0.106c-0.035-0.037-0.07-0.071-0.106-0.105c-0.036-0.038-0.073-0.073-0.11-0.108    c-0.035-0.037-0.071-0.071-0.108-0.106c-0.034-0.036-0.069-0.069-0.105-0.104c-0.036-0.038-0.072-0.073-0.11-0.108    c-0.035-0.037-0.07-0.071-0.107-0.105C23.887,19.364,23.113,19,22.25,19c-1.675,0-3.033,1.358-3.033,3.033    c0,0.867,0.368,1.644,0.951,2.196c0.036,0.038,0.073,0.073,0.111,0.109c0.034,0.036,0.069,0.07,0.105,0.104    c0.036,0.038,0.073,0.073,0.111,0.109c0.034,0.036,0.069,0.069,0.105,0.104c0.035,0.037,0.071,0.071,0.108,0.106    c0.035,0.037,0.071,0.072,0.108,0.107c0.035,0.037,0.07,0.071,0.107,0.105c0.036,0.038,0.072,0.073,0.11,0.108    c0.035,0.036,0.07,0.07,0.106,0.104c0.036,0.037,0.072,0.072,0.109,0.108c0.035,0.036,0.071,0.07,0.107,0.105    c0.035,0.036,0.071,0.071,0.108,0.106c0.035,0.037,0.071,0.071,0.108,0.106c0.035,0.037,0.071,0.071,0.107,0.106    c0.035,0.037,0.072,0.072,0.109,0.107c0.035,0.037,0.07,0.071,0.107,0.105c0.035,0.037,0.072,0.072,0.109,0.107    c0.035,0.037,0.071,0.071,0.107,0.106c0.035,0.037,0.072,0.072,0.109,0.107c0.035,0.037,0.071,0.071,0.107,0.105    c0.035,0.037,0.071,0.071,0.107,0.106c0.035,0.037,0.071,0.072,0.108,0.107c0.035,0.037,0.071,0.071,0.107,0.106    c0.036,0.037,0.072,0.072,0.109,0.107c0.035,0.037,0.071,0.071,0.107,0.106c0.035,0.037,0.071,0.071,0.108,0.106    c0.035,0.037,0.071,0.072,0.108,0.107c0.035,0.037,0.071,0.071,0.108,0.106c0.035,0.037,0.071,0.071,0.107,0.106    c0.035,0.037,0.071,0.071,0.108,0.106c0.035,0.037,0.071,0.072,0.108,0.106c0.035,0.037,0.071,0.072,0.108,0.106    c0.01,0.011,0.018,0.023,0.028,0.034H19.65V45h0.107v0.105h0.108v0.106h0.108v0.106h0.108v0.105h0.107v0.105h0.108v0.105h0.108    v0.106h0.107v0.106h0.108v0.105h0.108v0.105h0.108v0.105h0.108v0.105h0.108v0.106h0.108v0.106h0.108v0.105h0.107v0.105h0.108V46.8    h0.108v0.106h0.108v0.105h0.108v0.106h0.107v0.104h0.108v0.106h0.108v0.106h0.107v0.105h0.108v0.105h0.108v0.106h0.108v0.106    h0.108v0.105h0.108v0.105h0.108v0.105h0.108v0.106H23.1v0.104h0.108v0.106h0.108V48.6h0.108v0.105h0.108v0.105h0.107v0.106h0.108    v0.106h0.108v0.105h0.107v0.105h0.108v0.105h0.107v0.105h0.108v0.106h0.108v0.106H24.5v0.105h0.108v0.106h0.108v0.106h0.108v0.105    h0.108v0.105h0.108v0.105h0.108v0.105h0.108v0.106h0.108v0.106h0.108v0.104h0.108v0.106h0.107v0.105h0.108v0.106h0.108v0.106    h0.108v0.105h0.108v0.105h0.107v0.106h0.108v0.106h0.107v0.105h0.108v0.105h0.107v0.105h0.108v0.105h0.108v0.106h0.108v0.106h0.12    v0.105h0.108v0.105h0.108v0.105h0.107v0.106h0.108v0.106h0.108v0.105h0.108v0.105h0.108v0.106h0.107v0.104h0.108v0.106h0.108    v0.106h0.108v0.106h0.108v0.104h0.107v0.106h0.108v0.106h0.108v0.105h0.108v0.106h0.107v0.104h0.108v0.107h0.108v0.105h0.108    v0.105h0.107v0.105h0.108v0.105h0.108v0.107h0.107v0.104H29.8v0.106h0.107V55.1h0.109v0.106h0.107v0.106h0.108v0.104h0.108v0.106    h0.107v0.106h0.108v0.104h0.107v0.106h0.108v0.106h0.108v0.105h0.107v0.106h0.108v0.106H31.2v0.105h0.108v0.105h0.107v0.105h0.108    v0.105h0.108v0.106h0.108V56.9h0.108v0.105h0.107v0.105h0.108v0.105h0.108v0.105h0.108v0.107h0.107v0.105h0.108v0.105h0.108v0.106    h0.106v0.104h0.106v0.106h0.108v0.106h0.108v0.106h0.107v0.104h0.106v0.106h0.108v0.106h0.107v0.105h0.107V58.7h0.107v0.104h0.108    v0.106h0.106v0.106h0.108v0.105h0.106v0.105h0.108v0.105h0.108v0.107h0.107v0.104h0.107v0.106h0.107v0.105h0.107v0.105h0.107    v0.106h0.107v0.105h0.108v0.106h0.106v0.106h0.108v0.106h0.106v0.104h0.108v0.106h0.108v0.105h0.107v0.105h0.106v0.105h0.108    v0.107h0.107v0.104h0.107v0.106h0.107v0.105h0.108v0.106h0.106v0.104h0.107v0.107h0.107v0.105h0.108v0.106h0.106v0.104h0.109    v0.106h0.107v0.106h0.107v0.105h0.106v0.105h0.108v0.105h0.106v0.105h0.108v0.106h0.107v0.106h0.108v0.105h0.106v0.106h0.107    v0.106h0.107v0.105h0.109v0.105h0.106v0.105h0.108v0.105h0.106v0.106h0.108v0.106h0.106v0.105h0.108v0.105h0.107V64.1h0.107v0.104    h0.107v0.106h0.107v0.105h0.107v0.105h0.107v0.106H39.7v0.106h0.108v0.105h0.106v0.105h0.108v0.105h0.106v0.105h0.108v0.106h0.107    v0.106h0.107v0.105h0.107v0.106h0.107v0.104h0.107v0.107h0.107v0.105h0.108v0.105h0.106v0.105h0.108v0.106h0.108v0.106h0.106    v0.104h0.106v0.107h0.109v0.104h0.107v0.106h0.107V66.9h0.107v0.105h0.107v0.105h0.107v0.106h0.107v0.105h0.107v0.106h0.108v0.105    h0.106v0.105h0.108v0.106h0.108v0.106h0.107v0.104h0.106v0.106h0.108v0.105h0.107v0.105h0.107v0.106h0.107v0.106h0.108v0.105    h0.106v0.105h0.107v0.107h0.107v0.104h0.107v0.106h0.107v0.105h0.109v0.105h0.107v0.106h0.107v0.106h0.106v0.105h0.16v0.105h0.106    v0.105h0.108v0.106h0.108v0.106h0.106v0.105h0.108v0.105h0.107v0.106h0.107v0.104h0.107V70.5h0.107v0.105h0.107v0.105h0.107v0.105    h0.108v0.106h0.106v0.106h0.108v0.105h0.106v0.105h0.108v0.105h0.108v0.106h0.107v0.106h0.107v0.105h0.107v0.105h0.107v0.106    h0.107v0.106h0.107v0.104h0.107v0.106h0.107v0.105h0.108v0.106h0.106v0.106h0.108v0.104h0.106v0.106h0.108v0.105h0.107v0.107    h0.108v0.104h0.107v0.106h0.107v0.105h0.107v0.106h0.107v0.104h0.107v0.106h0.107v0.106h0.107v0.105h0.108v0.105h0.106v0.106    h0.108V74.1h0.107v0.105h0.108v0.105h0.106v0.105h0.108v0.106h0.107v0.106h0.107v0.105h0.107v0.105h0.107v0.106h0.107v0.104h0.107    v0.106H50.4v0.106h0.107v0.105h0.108v0.105h0.108v0.106h0.106v0.106h0.108v0.104h0.106v0.106h0.108v0.105h0.107v0.106h0.107v0.106    h0.107v0.105h0.107v0.105h0.107v0.106h0.107v0.106h0.108v0.104h0.106v0.106h0.108V77h5.198v-3.509h0.013v0.106h0.106v0.105h0.108    v0.105h0.108v0.106h0.107v0.106h0.107v0.105h0.107v0.105h0.107v0.106h0.107v0.104h0.107v0.106h0.107v0.106h0.107v0.105h0.108    v0.105h0.106v0.107h0.108v0.104h0.108v0.106h0.107v0.105h0.107v0.105h0.107v0.106h0.106v0.106h0.108v0.105h0.107v0.105h0.107    v0.105h0.107v0.106h0.108v0.106h0.106v0.105h0.108v0.105h0.106v0.106h0.109v0.106h0.106v0.105h0.108v0.105h0.107v0.106h0.107V77    h5.199v-6.061h0.021v0.106h0.108v0.104h0.107v0.106h0.107v0.106h0.107v0.105h0.107v0.106h0.107v0.106h0.107v0.105H66.9v0.105    h0.106v0.106h0.108v0.104h0.107v0.106h0.107v0.106h0.107v0.105h0.108v0.105h0.106v0.105h0.107v0.107h0.108v0.105h0.108v0.106    h0.106v0.104h0.106v0.106h0.108v0.106h0.108v0.105h0.107v0.105h0.107v0.105h0.107v0.105h0.107v0.106h0.107v0.106h0.107v0.105    h0.108v0.106h0.106v0.106h0.108v0.105h0.106v0.105H69.6v0.105h0.108v0.105h0.106v0.106h0.108v0.104h0.106v0.107h0.109v0.105h0.107    v0.105h0.107v0.106h0.106v0.106h0.108v0.105h0.107v0.105h0.107v0.106h0.107v0.104h0.107v0.106h0.107v0.106h0.107v0.105h0.107    v0.106h0.109v0.106h0.106v0.105h0.108v0.105h0.106v0.106h0.108v0.104h0.106v0.107h0.108V77h5.199v-9.533    C77.283,64.542,77.041,62.219,75.518,60.893z" enable-background="new    " fill="url(#SVGID_3_)" opacity="0.5"/></g></g><g id="in"><path d="M28.317,27.666h5.201v2.601l0,0c0.719-1.362,2.58-2.601,5.199-2.601   c5.452,0,6.066,3.135,6.066,7.801V45h-5.2v-8.667c0-2.009,0.163-4.333-2.601-4.333c-3.467,0-3.467,2.073-3.467,4.333V45h-5.2   L28.317,27.666L28.317,27.666z" fill="#FFFFFF" id="n_1_"/><rect fill="#FFFFFF" height="17.334" id="_x7C__1_" width="5.2" x="19.65" y="27.666"/><circle cx="22.25" cy="22.033" fill="#FFFFFF" id="_x28____x29__1_" r="3.033"/></g></svg>