<?xml version="1.0" ?><!DOCTYPE svg  PUBLIC '-//W3C//DTD SVG 1.1//EN'  'http://www.w3.org/Graphics/SVG/1.1/DTD/svg11.dtd'><svg enable-background="new 0 0 512 512" id="Layer_1" version="1.1" viewBox="0 0 512 512" xml:space="preserve" xmlns="http://www.w3.org/2000/svg" xmlns:xlink="http://www.w3.org/1999/xlink"><g><path d="M512,256c0,141.4-114.6,256-256,256C114.6,512,0,397.4,0,256C0,114.6,114.6,0,256,0   C397.4,0,512,114.6,512,256z" fill="#A82400"/><g><path d="M332.8,372.1c41.7-26.1,69.4-72.9,69.4-126.2c0-81.9-65.5-148.3-146.4-148.3    c-80.8,0-146.3,66.4-146.3,148.3c0,81.9,65.5,148.3,146.3,148.3c11.9,0,23.4-1.5,34.5-4.2c13.9,25.3,35.1,43.2,80,34.6v-25.2    C370.3,399.5,341.5,392.2,332.8,372.1z M331.7,265.4c0,24.8-7.9,47.3-20.7,63.9c-16.1-17.1-41.3-31.2-73.3-29.4v3v26.1    c0,0,21.7,0.9,36.6,26.4c-5.6,1.6-11.4,2.5-17.3,2.5c-41.3,0-74.7-41.4-74.7-92.5c0-6.5,0-31.7,0-38.2c0-51.1,33.4-92.5,74.7-92.5    c41.3,0,74.7,41.4,74.7,92.5C331.7,233.8,331.7,258.9,331.7,265.4z" fill="#FFFFFF" id="Quora_2_"/></g></g></svg>